<svg width="22" height="21" viewBox="0 0 22 21" fill="none" xmlns="http://www.w3.org/2000/svg">
<path d="M17.2662 2C17.3325 1.33376 17.3325 0.73376 17.3325 0H3.99999C3.99999 0.73376 3.99999 1.33376 4.06624 2H0V2.66624C0 8.6 7.53376 12.8 9.33376 13.7325L9.33251 16C9.33251 17.1337 8.46627 18 7.33251 18H5.99875V20.6662H15.3325V18H13.9987C12.865 18 11.9987 17.1337 11.9987 16V13.7337C13.7987 12.8 21.3325 8.59997 21.3325 2.66749V2.00125L17.2662 2ZM1.39998 3.33376H4.19998C4.46623 6.33376 5.19998 8.46752 5.99998 10C3.86622 8.33376 1.66622 6 1.39998 3.33376ZM15.4 10C16.2 8.46624 16.9337 6.33376 17.2 3.33376H20C19.6662 6 17.4662 8.33376 15.4 10Z" fill="currentColor"/>
</svg>
