<svg width="29" height="9" viewBox="0 0 29 9" fill="none" xmlns="http://www.w3.org/2000/svg">
<path d="M4.86954 7.65921L2.20063 8.60859L2.27813 5.77621L0.550125 3.52992L3.26867 2.72829L4.86954 0.391167L6.47162 2.72829L9.19017 3.52992L7.46216 5.77621L7.53966 8.60859L4.86954 7.65921Z" fill="#100C08"/>
<path d="M14.5 7.65921L11.8299 8.60859L11.9086 5.77621L10.1806 3.52992L12.8979 2.72829L14.5 0.391167L16.1021 2.72829L18.8194 3.52992L17.0914 5.77621L17.1701 8.60859L14.5 7.65921Z" fill="#100C08"/>
<path d="M24.1305 7.65921L21.4603 8.60859L21.5378 5.77621L19.8098 3.52992L22.5284 2.72829L24.1305 0.391167L25.7313 2.72829L28.4499 3.52992L26.7219 5.77621L26.7994 8.60859L24.1305 7.65921Z" fill="#100C08"/>
</svg>
