<svg width="33" height="21" viewBox="0 0 33 21" fill="none" xmlns="http://www.w3.org/2000/svg">
<path d="M31.3837 0.93C29.5029 1.78853 28.2151 3.63574 28.1494 5.74866L27.9844 10.2037C27.9509 10.9951 28.5787 11.6551 29.3701 11.6551H29.9309L28.9073 18.2215C28.7423 19.2115 29.5338 20.1357 30.5238 20.1357C31.4481 20.1357 32.1738 19.41 32.1738 18.4857L32.1751 1.4584C32.1751 1.02913 31.7459 0.765 31.3837 0.93Z" fill="black"/>
<path d="M5.70933 0.89634C5.37933 0.89634 5.11507 1.1606 5.11507 1.4906V5.9456C5.11507 6.1106 4.98358 6.24209 4.81858 6.24209H4.45505C4.29005 6.24209 4.15857 6.1106 4.15857 5.9456V1.4906C4.15857 1.1606 3.89431 0.89634 3.5643 0.89634C3.2343 0.89634 2.97004 1.1606 2.97004 1.4906V5.9456C2.97004 6.1106 2.83855 6.24209 2.67355 6.24209L2.31003 6.24338C2.14503 6.24338 2.01354 6.11189 2.01354 5.94689V1.49057C2.01354 1.16057 1.74928 0.896309 1.41928 0.896309C1.08927 0.896309 0.825012 1.16057 0.825012 1.49057V6.7049C0.825012 7.46417 1.45148 8.09064 2.21075 8.09064H2.50723L1.88076 18.3543C1.81502 19.3108 2.57429 20.1036 3.53076 20.1036H3.56428C4.52075 20.1036 5.28001 19.3121 5.21428 18.3543L4.62001 8.05863H4.9165C5.67576 8.05863 6.30223 7.43216 6.30223 6.67289L6.30352 1.4909C6.30352 1.1609 6.03934 0.89634 5.70933 0.89634Z" fill="black"/>
<path d="M16.665 0.89634C11.3513 0.89634 7.06134 5.18634 7.06134 10.5C7.06134 15.8137 11.3513 20.1037 16.665 20.1037C21.9787 20.1037 26.2687 15.8137 26.2687 10.5C26.2687 5.18634 21.9787 0.89634 16.665 0.89634ZM20.0643 12.8757C19.9328 14.1957 18.8758 15.2192 17.5893 15.4821V16.6707C17.5893 16.8022 17.4901 16.9014 17.3586 16.9014H16.0051C15.8736 16.9014 15.7743 16.8022 15.7743 16.6707V15.4821C14.4543 15.2514 13.4308 14.1621 13.2993 12.8086C13.2993 12.6771 13.3986 12.5444 13.5636 12.5444H14.9171C15.0164 12.5444 15.1478 12.6101 15.1478 12.7429C15.2471 13.2714 15.7086 13.6993 16.2693 13.6993H17.0286C17.5893 13.6993 18.1178 13.3036 18.2171 12.7429C18.3486 12.0171 17.7878 11.3893 17.0956 11.3893H16.4021C14.8514 11.3893 13.4656 10.2679 13.3006 8.71582C13.1356 7.09934 14.2571 5.74582 15.7756 5.48155V4.29302C15.7756 4.16154 15.8749 4.06228 16.0064 4.06228H17.3599C17.4914 4.06228 17.5907 4.16154 17.5907 4.29302V5.48155C18.9107 5.71229 19.9342 6.80155 20.0657 8.15508C20.0657 8.28657 19.9664 8.41934 19.8014 8.41934H18.4479C18.3486 8.41934 18.2171 8.35359 18.2171 8.22082C18.1179 7.66009 17.6564 7.26435 17.0957 7.26435H16.3364C15.7757 7.26435 15.2471 7.66009 15.1479 8.22082C15.0164 8.94656 15.5771 9.57435 16.2693 9.57435H17.0943C18.8436 9.57564 20.2293 11.0942 20.0643 12.8757Z" fill="black"/>
</svg>
