<svg width="21" height="19" viewBox="0 0 21 19" fill="none" xmlns="http://www.w3.org/2000/svg">
<path d="M20.11 3.92C20.11 2.03821 18.5818 0.509998 16.7 0.509998H4.3C2.41821 0.509998 0.889999 2.03821 0.889999 3.92V15.08C0.889999 16.9618 2.41821 18.49 4.3 18.49H16.7C18.5818 18.49 20.11 16.9618 20.11 15.08V3.92ZM18.25 15.08C18.25 15.9361 17.5561 16.63 16.7 16.63H4.3C3.6485 16.63 3.06363 16.2147 2.84325 15.5947L2.75969 15.3525L11.2072 10.4021C11.9265 9.98067 12.8783 10.0545 13.5225 10.5789L18.25 14.4201L18.25 15.08ZM18.25 12.02L14.6946 9.13067C14.0032 8.57 13.1289 8.26 12.2364 8.26C11.5449 8.26 10.8632 8.44648 10.265 8.79645L2.75121 13.2019V3.92015C2.75121 3.06403 3.44508 2.37015 4.30121 2.37015H16.7012C17.5573 2.37015 18.2512 3.06403 18.2512 3.92015V12.0201L18.25 12.02Z" fill="#100C08"/>
<path d="M7.71 6.4C7.71 7.64 5.85 7.64 5.85 6.4C5.85 5.16 7.71 5.16 7.71 6.4Z" fill="#100C08"/>
</svg>
