<svg width="24" height="20" viewBox="0 0 24 20" fill="none" xmlns="http://www.w3.org/2000/svg">
<path d="M22.68 5.2H23.88V0.4H0.120003V19.36H23.88V14.56H22.68C21.96 14.56 21.48 14.08 21.48 13.36C21.48 12.76 21.96 12.16 22.68 12.16H23.88V7.6H22.68C21.96 7.6 21.48 7.12 21.48 6.4C21.48 5.8 22.08 5.2 22.68 5.2ZM21.48 3.04C20.04 3.52 19.08 4.84 19.08 6.4C19.08 7.96 20.04 9.28 21.48 9.76V10.12C20.04 10.6 19.08 11.92 19.08 13.48C19.08 15.04 20.04 16.36 21.48 16.84V17.08H2.52V2.92H21.48V3.04Z" fill="#100C08"/>
<path d="M4.92001 11.2H16.8V13.6H4.92001V11.2Z" fill="#100C08"/>
<path d="M4.92001 6.4H16.8V8.8H4.92001V6.4Z" fill="#100C08"/>
</svg>
