<svg xmlns="http://www.w3.org/2000/svg" xmlns:xlink="http://www.w3.org/1999/xlink" width="32px" height="16px" viewBox="0 0 32 16" version="1.1">
  <g id="surface1">
  <rect x="0" y="0" width="32" height="16" style="fill:rgb(100%,100%,100%);fill-opacity:1;stroke:none;"/>
  <path style=" stroke:none;fill-rule:evenodd;fill:rgb(80%,0%,0%);fill-opacity:1;" d="M 0 6.398438 L 32 6.398438 L 32 9.601562 L 0 9.601562 Z M 0 6.398438 "/>
  <path style=" stroke:none;fill-rule:evenodd;fill:rgb(80%,0%,0%);fill-opacity:1;" d="M 17.601562 0 L 17.601562 16 L 14.398438 16 L 14.398438 0 Z M 17.601562 0 "/>
  <path style="fill-rule:evenodd;fill:rgb(92.156863%,91.764706%,89.019608%);fill-opacity:1;stroke-width:0.325972;stroke-linecap:butt;stroke-linejoin:miter;stroke:rgb(0%,0%,0%);stroke-opacity:1;stroke-miterlimit:4;" d="M 321.972656 91.625977 C 323.950195 88.623047 322.77832 86.645508 319.848633 86.05957 C 319.848633 86.05957 310.546875 89.0625 300.512695 89.355469 C 290.478516 89.72168 278.613281 86.865234 278.613281 86.865234 C 276.416016 88.183594 276.928711 91.40625 278.027344 93.383789 C 278.027344 93.383789 288.500977 96.826172 300.512695 96.533203 C 308.056641 96.313477 315.307617 94.335938 319.335938 93.09082 C 321.606445 92.358398 321.972656 91.699219 321.972656 91.625977 Z M 321.972656 91.625977 " transform="matrix(0.0533333,0,0,0.0533333,0,0)"/>
  <path style="fill-rule:nonzero;fill:rgb(100%,100%,100%);fill-opacity:1;stroke-width:1.157817;stroke-linecap:butt;stroke-linejoin:miter;stroke:rgb(8.627451%,6.666667%,6.666667%);stroke-opacity:1;stroke-miterlimit:4;" d="M -236.362163 69.903802 L -258.664693 23.517932 L -310.053793 27.418754 L -281.052024 -15.151094 L -310.053793 -57.720943 L -258.664693 -53.82012 L -236.362163 -100.205991 L -214.059633 -53.82012 L -162.670533 -57.720943 L -191.672302 -15.151094 L -162.670533 27.418754 L -214.059633 23.517932 Z M -236.362163 69.903802 " transform="matrix(0.046064,0,0,0.046064,26.887787,8.69792)"/>
  <path style="fill-rule:nonzero;fill:rgb(80%,0%,0%);fill-opacity:1;stroke-width:0.0753898;stroke-linecap:butt;stroke-linejoin:miter;stroke:rgb(8.627451%,6.666667%,6.666667%);stroke-opacity:1;stroke-miterlimit:4;" d="M 15.776969 11.624779 C 15.890867 11.506727 16.075272 11.371811 16.178321 11.090735 C 16.275948 10.826523 16.319337 10.343072 16.411539 10.095725 C 16.525437 9.674111 16.753231 9.26374 16.482047 9.291848 C 16.216287 9.319955 16.134932 9.578545 16.031882 9.769677 C 15.983069 9.876486 15.945103 9.988916 15.923409 10.101347 C 15.912561 10.15194 15.912561 10.213777 15.858325 10.241885 C 15.934256 9.601031 15.760698 9.123202 15.701038 8.173165 C 15.679343 7.774037 15.614259 7.374909 15.413583 7.369287 C 15.26172 7.369287 15.240025 7.571662 15.212907 7.729065 C 15.212907 7.509825 15.223754 7.048861 14.974265 7.048861 C 14.665116 7.048861 14.757318 7.689714 14.719353 8.015762 C 14.708505 7.903332 14.708505 7.655985 14.675963 7.492961 C 14.665116 7.442367 14.643421 7.397395 14.605455 7.363666 C 14.589184 7.346801 14.562066 7.335558 14.5241 7.335558 C 14.247493 7.335558 14.252916 7.734686 14.263764 8.133814 C 14.269187 8.173165 14.263764 8.364297 14.269187 8.493592 C 14.269187 8.274352 14.269187 7.847117 14.05224 7.869603 C 13.867835 7.880846 13.856988 8.358675 13.846141 8.617265 C 13.856988 8.870234 13.775633 9.460493 13.743091 9.629139 C 13.737667 9.747191 13.688854 9.904594 13.672583 10.067618 C 13.629194 10.427395 13.672583 10.843388 13.715973 11.062627 C 13.808175 11.399918 14.041393 11.551699 14.030546 11.782182 C 14.019698 12.012664 14.030546 12.417414 14.030546 12.597302 C 14.030546 12.777191 14.182409 12.788434 14.496982 12.715354 C 15.012231 12.602924 15.294262 12.833406 15.717309 12.664761 C 15.663072 12.158824 15.787817 11.804668 15.776969 11.624779 Z M 15.776969 11.624779 " transform="matrix(0.720222,0,0,0.694874,5.277707,0.937867)"/>
  <path style="fill-rule:nonzero;fill:rgb(80%,0%,0%);fill-opacity:1;stroke-width:0.541356;stroke-linecap:butt;stroke-linejoin:miter;stroke:rgb(8.627451%,6.666667%,6.666667%);stroke-opacity:1;stroke-miterlimit:4;" d="M 149.030833 76.447265 C 149.774687 74.278828 150.753442 73.435547 151.693047 72.953672 M 150.40109 83.956484 C 150.479391 83.514765 150.753442 83.153359 151.144944 82.751797 M 140.222039 59.902891 C 140.261189 61.830391 140.37864 65.524766 140.37864 66.408203 M 147.073323 54.642422 C 146.955873 55.646328 147.112474 56.48961 147.073323 57.533672 C 147.073323 58.216328 147.151624 59.501328 147.269074 61.067422 C 147.229924 61.62961 147.425675 64.400391 147.229924 65.444453 M 143.471505 56.569922 C 143.510656 56.931328 143.471505 57.413203 143.510656 57.895078 C 143.588956 60.384766 143.549806 64.038985 143.588956 65.846016 " transform="matrix(0.099776,0,0,0.0972763,1.563893,0.958027)"/>
  <path style="fill-rule:evenodd;fill:rgb(69.019608%,13.72549%,12.54902%);fill-opacity:1;stroke-width:0.814929;stroke-linecap:butt;stroke-linejoin:miter;stroke:rgb(0%,0%,0%);stroke-opacity:1;stroke-miterlimit:4;" d="M 299.707031 76.391602 C 323.950195 80.419922 323.071289 81.518555 323.071289 81.518555 L 329.370117 62.62207 C 329.370117 62.62207 330.029297 58.886719 328.344727 56.616211 C 326.586914 54.345703 321.75293 55.59082 321.75293 55.59082 C 321.75293 55.59082 321.09375 52.587891 318.969727 51.855469 C 316.845703 51.123047 308.862305 54.711914 306.445312 55.517578 C 303.955078 56.323242 302.709961 57.055664 299.267578 57.055664 C 295.751953 56.982422 289.599609 53.90625 288.427734 53.320312 C 287.329102 52.661133 285.644531 52.075195 284.106445 52.148438 C 282.641602 52.22168 281.030273 52.661133 280.224609 53.686523 C 279.418945 54.785156 279.418945 56.103516 279.418945 56.103516 C 279.418945 56.103516 278.173828 55.297852 276.123047 55.297852 C 274.145508 55.297852 273.046875 55.59082 272.094727 56.616211 C 271.142578 57.714844 269.970703 60.717773 269.970703 60.717773 L 272.241211 65.844727 L 272.387695 72.875977 L 277.075195 80.34668 Z M 299.707031 76.391602 " transform="matrix(0.0533333,0,0,0.0533333,0,0)"/>
  <path style="fill-rule:evenodd;fill:rgb(92.156863%,91.764706%,89.019608%);fill-opacity:1;stroke-width:0.325972;stroke-linecap:butt;stroke-linejoin:miter;stroke:rgb(0%,0%,0%);stroke-opacity:1;stroke-miterlimit:4;" d="M 322.265625 87.084961 C 322.265625 87.084961 323.510742 88.549805 323.4375 89.0625 C 323.4375 89.575195 322.924805 90.014648 322.924805 90.014648 C 322.924805 90.014648 323.291016 90.380859 323.217773 90.966797 C 323.071289 91.552734 322.338867 91.552734 322.338867 91.552734 C 322.338867 91.552734 322.485352 92.06543 322.045898 92.358398 C 321.533203 92.578125 319.628906 93.017578 319.628906 93.017578 C 319.628906 93.017578 310.253906 90.307617 300.219727 90.307617 C 290.185547 90.307617 278.320312 93.530273 278.320312 93.530273 C 278.320312 93.530273 277.148438 93.09082 277.075195 92.358398 C 277.001953 91.552734 277.22168 90.966797 277.22168 90.966797 C 277.22168 90.966797 276.5625 91.040039 276.342773 90.454102 C 276.123047 89.648438 276.489258 88.989258 276.489258 88.989258 C 276.489258 88.989258 275.976562 89.135742 276.489258 88.037109 C 276.855469 87.231445 277.441406 87.011719 277.441406 87.011719 C 277.441406 87.011719 287.988281 83.203125 299.926758 83.203125 C 311.865234 83.129883 322.265625 87.011719 322.265625 87.084961 Z M 322.265625 87.084961 " transform="matrix(0.0533333,0,0,0.0533333,0,0)"/>
  <path style="fill:none;stroke-width:0.717137;stroke-linecap:butt;stroke-linejoin:miter;stroke:rgb(0%,0%,0%);stroke-opacity:1;stroke-miterlimit:4;" d="M 272.607422 63.427734 C 272.607422 63.427734 272.241211 62.036133 273.120117 60.864258 C 273.999023 59.692383 275.610352 59.765625 276.123047 59.985352 C 276.5625 60.205078 276.489258 60.791016 277.148438 60.9375 C 277.807617 61.083984 278.24707 60.644531 278.24707 60.644531 " transform="matrix(0.0533333,0,0,0.0533333,0,0)"/>
  <path style="fill-rule:evenodd;fill:rgb(100%,80%,0%);fill-opacity:0.941176;stroke-width:0.749735;stroke-linecap:butt;stroke-linejoin:miter;stroke:rgb(0%,0%,0%);stroke-opacity:1;stroke-miterlimit:4;" d="M 331.12793 66.650391 L 327.46582 74.121094 L 326.074219 74.414062 C 326.074219 74.414062 325.195312 73.901367 322.705078 74.047852 C 320.947266 74.194336 320.43457 74.633789 320.43457 74.633789 L 323.657227 67.089844 C 323.657227 67.089844 323.876953 68.774414 324.243164 69.65332 C 324.755859 70.898438 326.513672 71.99707 326.513672 71.99707 C 326.513672 71.99707 326.806641 70.605469 326.293945 68.847656 C 325.78125 66.870117 324.536133 64.306641 324.536133 64.306641 Z M 331.12793 66.650391 " transform="matrix(0.0533333,0,0,0.0533333,0,0)"/>
  <path style="fill-rule:nonzero;fill:rgb(7.058824%,6.666667%,8.627451%);fill-opacity:1;stroke-width:0.731154;stroke-linecap:butt;stroke-linejoin:round;stroke:rgb(7.058824%,6.666667%,8.627451%);stroke-opacity:1;stroke-miterlimit:4;" d="M 297.802734 43.212891 L 301.904297 43.212891 L 301.904297 60.498047 L 297.802734 60.498047 Z M 297.802734 43.212891 " transform="matrix(0.0533333,0,0,0.0533333,0,0)"/>
  <path style="fill-rule:evenodd;fill:rgb(96.470588%,79.215686%,12.156863%);fill-opacity:1;stroke-width:0.619346;stroke-linecap:butt;stroke-linejoin:miter;stroke:rgb(0%,0%,0%);stroke-opacity:1;stroke-miterlimit:4;" d="M 272.827148 75.146484 L 275.463867 80.712891 C 275.463867 80.712891 286.59668 76.391602 299.707031 76.464844 C 319.482422 76.611328 325.048828 80.566406 325.048828 80.566406 L 327.978516 73.608398 L 325.78125 74.926758 L 323.510742 76.318359 L 320.947266 77.270508 L 317.871094 77.050781 L 315.161133 75 L 313.696289 72.070312 L 311.425781 74.267578 L 307.324219 75.146484 L 303.295898 74.121094 L 299.780273 69.65332 C 299.780273 69.65332 297.143555 74.633789 293.847656 74.926758 C 289.013672 75.366211 286.230469 72.583008 286.230469 72.583008 C 286.230469 72.583008 284.472656 76.611328 281.469727 77.34375 C 276.782227 78.515625 272.900391 75.146484 272.827148 75.146484 Z M 272.827148 75.146484 " transform="matrix(0.0533333,0,0,0.0533333,0,0)"/>
  <path style="fill-rule:nonzero;fill:rgb(93.333333%,93.333333%,93.333333%);fill-opacity:1;stroke-width:2.243;stroke-linecap:butt;stroke-linejoin:round;stroke:rgb(11.764706%,11.764706%,11.764706%);stroke-opacity:1;stroke-miterlimit:4;" d="M 430.686418 247.371307 C 430.686418 250.966347 427.765448 253.887316 424.170409 253.887316 C 420.575369 253.887316 417.6544 250.966347 417.6544 247.371307 C 417.6544 243.776268 420.575369 240.855298 424.170409 240.855298 C 427.765448 240.855298 430.686418 243.776268 430.686418 247.371307 " transform="matrix(0.0173851,0,0,0.0173851,9.461707,-2.113067)"/>
  <path style=" stroke:none;fill-rule:evenodd;fill:rgb(63.921569%,68.627451%,72.156863%);fill-opacity:1;" d="M 16.785156 2.246094 C 16.785156 2.246094 16.875 2.246094 16.882812 2.207031 C 16.894531 2.171875 16.878906 2.125 16.878906 2.125 C 16.878906 2.125 16.921875 2.171875 16.910156 2.207031 C 16.894531 2.246094 16.882812 2.253906 16.851562 2.261719 C 16.832031 2.265625 16.800781 2.257812 16.785156 2.246094 Z M 16.785156 2.246094 "/>
  <path style="fill-rule:nonzero;fill:rgb(93.333333%,93.333333%,93.333333%);fill-opacity:1;stroke-width:2.243;stroke-linecap:butt;stroke-linejoin:round;stroke:rgb(11.764706%,11.764706%,11.764706%);stroke-opacity:1;stroke-miterlimit:4;" d="M 430.634409 247.454113 C 430.634409 251.049152 427.71344 253.970122 424.1184 253.970122 C 420.523361 253.970122 417.827081 251.049152 417.827081 247.454113 C 417.602392 243.859073 420.523361 240.938104 424.1184 240.938104 C 427.71344 240.938104 430.634409 243.859073 430.634409 247.454113 " transform="matrix(0.0173851,0,0,0.0173851,9.189173,-1.9856)"/>
  <path style=" stroke:none;fill-rule:evenodd;fill:rgb(63.921569%,68.627451%,72.156863%);fill-opacity:1;" d="M 16.511719 2.375 C 16.511719 2.375 16.601562 2.371094 16.609375 2.335938 C 16.621094 2.296875 16.605469 2.25 16.605469 2.25 C 16.605469 2.25 16.648438 2.296875 16.636719 2.335938 C 16.625 2.371094 16.613281 2.382812 16.582031 2.390625 C 16.558594 2.394531 16.527344 2.386719 16.511719 2.375 Z M 16.511719 2.375 "/>
  <path style="fill-rule:nonzero;fill:rgb(93.333333%,93.333333%,93.333333%);fill-opacity:1;stroke-width:2.243;stroke-linecap:butt;stroke-linejoin:round;stroke:rgb(11.764706%,11.764706%,11.764706%);stroke-opacity:1;stroke-miterlimit:4;" d="M 430.685243 247.397072 C 430.685243 250.992111 427.764274 253.913081 424.169234 253.913081 C 420.574195 253.913081 417.653225 250.992111 417.653225 247.397072 C 417.653225 243.802032 420.574195 240.881063 424.169234 240.881063 C 427.764274 240.881063 430.685243 243.802032 430.685243 247.397072 " transform="matrix(0.0173851,0,0,0.0173851,9.778133,-2.187733)"/>
  <path style=" stroke:none;fill-rule:evenodd;fill:rgb(63.921569%,68.627451%,72.156863%);fill-opacity:1;" d="M 17.101562 2.171875 C 17.101562 2.171875 17.191406 2.171875 17.199219 2.132812 C 17.210938 2.097656 17.195312 2.050781 17.195312 2.050781 C 17.195312 2.050781 17.238281 2.097656 17.226562 2.132812 C 17.210938 2.171875 17.199219 2.179688 17.167969 2.1875 C 17.148438 2.191406 17.117188 2.183594 17.101562 2.171875 Z M 17.101562 2.171875 "/>
  <path style="fill-rule:nonzero;fill:rgb(93.333333%,93.333333%,93.333333%);fill-opacity:1;stroke-width:2.243;stroke-linecap:butt;stroke-linejoin:round;stroke:rgb(11.764706%,11.764706%,11.764706%);stroke-opacity:1;stroke-miterlimit:4;" d="M 430.633211 247.315344 C 430.633211 250.910384 427.712242 253.831353 424.117202 254.056043 C 420.522163 254.056043 417.825883 251.135074 417.825883 247.540034 C 417.601193 243.720305 420.522163 240.799335 424.117202 240.799335 C 427.712242 240.799335 430.633211 243.720305 430.633211 247.315344 " transform="matrix(0.0173851,0,0,0.0173851,10.134507,-2.116)"/>
  <path style=" stroke:none;fill-rule:evenodd;fill:rgb(63.921569%,68.627451%,72.156863%);fill-opacity:1;" d="M 17.457031 2.242188 C 17.457031 2.242188 17.546875 2.242188 17.554688 2.207031 C 17.566406 2.167969 17.550781 2.121094 17.550781 2.121094 C 17.550781 2.121094 17.59375 2.167969 17.582031 2.207031 C 17.570312 2.242188 17.558594 2.25 17.527344 2.257812 C 17.503906 2.265625 17.472656 2.257812 17.457031 2.242188 Z M 17.457031 2.242188 "/>
  <path style="fill-rule:nonzero;fill:rgb(93.333333%,93.333333%,93.333333%);fill-opacity:1;stroke-width:2.243;stroke-linecap:butt;stroke-linejoin:round;stroke:rgb(11.764706%,11.764706%,11.764706%);stroke-opacity:1;stroke-miterlimit:4;" d="M 430.737371 247.475012 C 430.737371 251.070052 427.816402 253.991021 424.221362 253.991021 C 420.626323 253.991021 417.705353 251.070052 417.705353 247.475012 C 417.705353 243.879973 420.626323 240.959003 424.221362 240.959003 C 427.591712 240.959003 430.512681 243.655283 430.737371 247.250322 " transform="matrix(0.0173851,0,0,0.0173851,10.406133,-1.892213)"/>
  <path style=" stroke:none;fill-rule:evenodd;fill:rgb(63.921569%,68.627451%,72.156863%);fill-opacity:1;" d="M 17.726562 2.46875 C 17.726562 2.46875 17.820312 2.464844 17.828125 2.429688 C 17.835938 2.390625 17.820312 2.34375 17.820312 2.34375 C 17.820312 2.34375 17.863281 2.390625 17.851562 2.429688 C 17.839844 2.464844 17.828125 2.476562 17.796875 2.484375 C 17.777344 2.488281 17.746094 2.480469 17.726562 2.46875 Z M 17.726562 2.46875 "/>
  <path style="fill-rule:nonzero;fill:rgb(93.333333%,93.333333%,93.333333%);fill-opacity:1;stroke-width:2.243;stroke-linecap:butt;stroke-linejoin:round;stroke:rgb(11.764706%,11.764706%,11.764706%);stroke-opacity:1;stroke-miterlimit:4;" d="M 430.725915 247.468158 C 430.725915 251.063197 427.804946 253.984166 424.209906 253.984166 C 420.614867 253.984166 417.693897 251.063197 417.693897 247.468158 C 417.693897 243.873118 420.614867 240.952149 424.209906 240.952149 C 427.804946 240.952149 430.501225 243.648428 430.725915 247.468158 " transform="matrix(0.0173851,0,0,0.0173851,10.52352,-1.524907)"/>
  <path style=" stroke:none;fill-rule:evenodd;fill:rgb(63.921569%,68.627451%,72.156863%);fill-opacity:1;" d="M 17.84375 2.835938 C 17.84375 2.835938 17.9375 2.832031 17.945312 2.796875 C 17.953125 2.757812 17.9375 2.710938 17.9375 2.710938 C 17.9375 2.710938 17.980469 2.757812 17.96875 2.796875 C 17.957031 2.832031 17.945312 2.84375 17.914062 2.851562 C 17.894531 2.855469 17.863281 2.847656 17.84375 2.835938 Z M 17.84375 2.835938 "/>
  <path style="fill-rule:nonzero;fill:rgb(93.333333%,93.333333%,93.333333%);fill-opacity:1;stroke-width:2.243;stroke-linecap:butt;stroke-linejoin:round;stroke:rgb(11.764706%,11.764706%,11.764706%);stroke-opacity:1;stroke-miterlimit:4;" d="M 430.532933 247.440572 C 430.532933 251.035611 427.836654 253.956581 424.241614 253.956581 C 420.646575 253.956581 417.725606 251.035611 417.725606 247.440572 C 417.725606 243.845532 420.646575 240.924563 424.241614 240.924563 C 427.611964 240.924563 430.532933 243.845532 430.532933 247.440572 " transform="matrix(0.0173851,0,0,0.0173851,10.48,-1.153333)"/>
  <path style=" stroke:none;fill-rule:evenodd;fill:rgb(63.921569%,68.627451%,72.156863%);fill-opacity:1;" d="M 17.800781 3.207031 C 17.800781 3.207031 17.894531 3.203125 17.902344 3.167969 C 17.910156 3.132812 17.894531 3.082031 17.894531 3.082031 C 17.894531 3.082031 17.9375 3.132812 17.925781 3.167969 C 17.914062 3.203125 17.902344 3.214844 17.871094 3.222656 C 17.851562 3.226562 17.820312 3.21875 17.800781 3.207031 Z M 17.800781 3.207031 "/>
  <path style="fill-rule:nonzero;fill:rgb(93.333333%,93.333333%,93.333333%);fill-opacity:1;stroke-width:2.243;stroke-linecap:butt;stroke-linejoin:round;stroke:rgb(11.764706%,11.764706%,11.764706%);stroke-opacity:1;stroke-miterlimit:4;" d="M 430.593762 247.339647 C 430.593762 250.934686 427.672792 253.855656 424.077753 253.855656 C 420.707403 253.855656 417.786434 250.934686 417.786434 247.339647 C 417.786434 243.744607 420.482713 240.823638 424.077753 240.823638 C 427.672792 240.823638 430.593762 243.744607 430.593762 247.339647 " transform="matrix(0.0173851,0,0,0.0173851,10.31488,-0.82736)"/>
  <path style=" stroke:none;fill-rule:evenodd;fill:rgb(63.921569%,68.627451%,72.156863%);fill-opacity:1;" d="M 17.636719 3.53125 C 17.636719 3.53125 17.726562 3.53125 17.738281 3.492188 C 17.746094 3.457031 17.730469 3.410156 17.730469 3.410156 C 17.730469 3.410156 17.773438 3.457031 17.761719 3.492188 C 17.75 3.53125 17.738281 3.539062 17.707031 3.546875 C 17.683594 3.550781 17.652344 3.542969 17.636719 3.53125 Z M 17.636719 3.53125 "/>
  <path style="fill-rule:nonzero;fill:rgb(93.333333%,93.333333%,93.333333%);fill-opacity:1;stroke-width:2.243;stroke-linecap:butt;stroke-linejoin:round;stroke:rgb(11.764706%,11.764706%,11.764706%);stroke-opacity:1;stroke-miterlimit:4;" d="M 430.605361 247.448145 C 430.605361 251.043185 427.684392 253.964154 424.089353 253.964154 C 420.719003 253.964154 417.798034 251.043185 417.798034 247.448145 C 417.798034 243.853106 420.494313 240.932136 424.089353 240.932136 C 427.684392 240.932136 430.605361 243.853106 430.605361 247.448145 " transform="matrix(0.0173851,0,0,0.0173851,8.924053,-1.88784)"/>
  <path style=" stroke:none;fill-rule:evenodd;fill:rgb(63.921569%,68.627451%,72.156863%);fill-opacity:1;" d="M 16.246094 2.472656 C 16.246094 2.472656 16.335938 2.46875 16.347656 2.433594 C 16.355469 2.398438 16.339844 2.347656 16.339844 2.347656 C 16.339844 2.347656 16.382812 2.398438 16.371094 2.433594 C 16.359375 2.46875 16.347656 2.480469 16.316406 2.488281 C 16.292969 2.492188 16.261719 2.484375 16.246094 2.472656 Z M 16.246094 2.472656 "/>
  <path style="fill-rule:nonzero;fill:rgb(93.333333%,93.333333%,93.333333%);fill-opacity:1;stroke-width:2.68218;stroke-linecap:butt;stroke-linejoin:round;stroke:rgb(11.764706%,11.764706%,11.764706%);stroke-opacity:1;stroke-miterlimit:4;" d="M 430.529565 247.302767 C 430.529565 251.064288 427.842764 254.019769 424.081243 254.019769 C 420.588402 254.019769 417.632921 251.064288 417.632921 247.302767 C 417.632921 243.809926 420.588402 240.854446 424.081243 240.854446 C 427.574084 240.854446 430.529565 243.809926 430.529565 247.302767 " transform="matrix(0.0145387,0,0,0.0145387,9.810987,-1.21264)"/>
  <path style=" stroke:none;fill-rule:evenodd;fill:rgb(63.921569%,68.627451%,72.156863%);fill-opacity:1;" d="M 15.933594 2.433594 C 15.933594 2.433594 16.011719 2.433594 16.019531 2.402344 C 16.027344 2.371094 16.011719 2.332031 16.011719 2.332031 C 16.011719 2.332031 16.046875 2.371094 16.039062 2.402344 C 16.027344 2.433594 16.019531 2.441406 15.992188 2.445312 C 15.972656 2.449219 15.949219 2.445312 15.933594 2.433594 Z M 15.933594 2.433594 "/>
  <path style="fill-rule:nonzero;fill:rgb(93.333333%,93.333333%,93.333333%);fill-opacity:1;stroke-width:2.68218;stroke-linecap:butt;stroke-linejoin:round;stroke:rgb(11.764706%,11.764706%,11.764706%);stroke-opacity:1;stroke-miterlimit:4;" d="M 430.721209 247.502723 C 430.721209 250.995564 427.765728 253.951044 424.272887 253.951044 C 420.511366 253.951044 417.824566 250.995564 417.824566 247.502723 C 417.824566 243.741202 420.511366 240.785721 424.004207 240.785721 C 427.765728 240.785721 430.721209 243.741202 430.721209 247.234043 " transform="matrix(0.0145387,0,0,0.0145387,9.812107,-1.094453)"/>
  <path style=" stroke:none;fill-rule:evenodd;fill:rgb(63.921569%,68.627451%,72.156863%);fill-opacity:1;" d="M 15.933594 2.550781 C 15.933594 2.550781 16.011719 2.550781 16.019531 2.519531 C 16.027344 2.488281 16.015625 2.449219 16.015625 2.449219 C 16.015625 2.449219 16.050781 2.488281 16.039062 2.519531 C 16.027344 2.550781 16.019531 2.558594 15.992188 2.5625 C 15.976562 2.570312 15.949219 2.5625 15.933594 2.550781 Z M 15.933594 2.550781 "/>
  <path style="fill-rule:nonzero;fill:rgb(93.333333%,93.333333%,93.333333%);fill-opacity:1;stroke-width:2.68218;stroke-linecap:butt;stroke-linejoin:round;stroke:rgb(11.764706%,11.764706%,11.764706%);stroke-opacity:1;stroke-miterlimit:4;" d="M 430.542347 247.365732 C 430.542347 251.127253 427.855546 253.814053 424.094025 254.082733 C 420.601184 254.082733 417.645703 251.127253 417.645703 247.365732 C 417.645703 243.872891 420.601184 240.91741 424.094025 240.91741 C 427.586866 240.91741 430.542347 243.872891 430.542347 247.365732 " transform="matrix(0.0145387,0,0,0.0145387,9.818613,-0.920587)"/>
  <path style=" stroke:none;fill-rule:evenodd;fill:rgb(63.921569%,68.627451%,72.156863%);fill-opacity:1;" d="M 15.941406 2.726562 C 15.941406 2.726562 16.019531 2.722656 16.027344 2.691406 C 16.03125 2.664062 16.019531 2.621094 16.019531 2.621094 C 16.019531 2.621094 16.054688 2.664062 16.046875 2.691406 C 16.035156 2.722656 16.027344 2.730469 16 2.738281 C 15.980469 2.742188 15.957031 2.734375 15.941406 2.726562 Z M 15.941406 2.726562 "/>
  <path style="fill-rule:nonzero;fill:rgb(93.333333%,93.333333%,93.333333%);fill-opacity:1;stroke-width:2.480171;stroke-linecap:butt;stroke-linejoin:round;stroke:rgb(11.764706%,11.764706%,11.764706%);stroke-opacity:1;stroke-miterlimit:4;" d="M 430.680361 247.300818 C 430.680361 251.027524 427.698996 254.008888 424.220738 254.008888 C 420.742479 254.008888 417.761115 251.027524 417.761115 247.549265 C 417.761115 243.82256 420.494032 240.841195 424.220738 240.841195 C 427.698996 240.841195 430.680361 243.82256 430.680361 247.300818 " transform="matrix(0.0157227,0,0,0.0157227,9.3184,-1.028853)"/>
  <path style=" stroke:none;fill-rule:evenodd;fill:rgb(63.921569%,68.627451%,72.156863%);fill-opacity:1;" d="M 15.941406 2.914062 C 15.941406 2.914062 16.023438 2.914062 16.03125 2.878906 C 16.039062 2.847656 16.023438 2.800781 16.023438 2.800781 C 16.023438 2.800781 16.0625 2.847656 16.054688 2.878906 C 16.042969 2.914062 16.03125 2.921875 16.003906 2.929688 C 15.984375 2.933594 15.957031 2.925781 15.941406 2.914062 Z M 15.941406 2.914062 "/>
  <path style="fill-rule:nonzero;fill:rgb(93.333333%,93.333333%,93.333333%);fill-opacity:1;stroke-width:2.243;stroke-linecap:butt;stroke-linejoin:round;stroke:rgb(11.764706%,11.764706%,11.764706%);stroke-opacity:1;stroke-miterlimit:4;" d="M 430.727665 247.442345 C 430.727665 251.037385 427.806695 253.958354 424.211656 253.958354 C 420.616616 253.958354 417.695647 251.037385 417.695647 247.442345 C 417.695647 243.847306 420.616616 240.926336 424.211656 240.926336 C 427.806695 240.926336 430.502975 243.847306 430.727665 247.442345 " transform="matrix(0.0173851,0,0,0.0173851,8.613333,-1.192427)"/>
  <path style=" stroke:none;fill-rule:evenodd;fill:rgb(63.921569%,68.627451%,72.156863%);fill-opacity:1;" d="M 15.933594 3.167969 C 15.933594 3.167969 16.027344 3.164062 16.035156 3.128906 C 16.042969 3.09375 16.027344 3.042969 16.027344 3.042969 C 16.027344 3.042969 16.070312 3.09375 16.058594 3.128906 C 16.046875 3.164062 16.035156 3.175781 16.003906 3.183594 C 15.984375 3.1875 15.953125 3.179688 15.933594 3.167969 Z M 15.933594 3.167969 "/>
  <path style="fill-rule:nonzero;fill:rgb(93.333333%,93.333333%,93.333333%);fill-opacity:1;stroke-width:2.388315;stroke-linecap:butt;stroke-linejoin:round;stroke:rgb(11.764706%,11.764706%,11.764706%);stroke-opacity:1;stroke-miterlimit:4;" d="M 430.700236 247.404017 C 430.700236 250.992678 427.829307 253.863607 424.240646 253.863607 C 420.651984 253.863607 417.781055 250.992678 417.781055 247.404017 C 417.781055 243.815355 420.651984 240.944426 424.240646 240.944426 C 427.590063 240.944426 430.700236 243.815355 430.700236 247.404017 " transform="matrix(0.0163275,0,0,0.0163275,9.0576,-0.422293)"/>
  <path style=" stroke:none;fill-rule:evenodd;fill:rgb(63.921569%,68.627451%,72.156863%);fill-opacity:1;" d="M 15.933594 3.671875 C 15.933594 3.671875 16.019531 3.671875 16.027344 3.636719 C 16.035156 3.601562 16.023438 3.558594 16.023438 3.558594 C 16.023438 3.558594 16.0625 3.601562 16.050781 3.636719 C 16.039062 3.671875 16.027344 3.679688 16 3.6875 C 15.980469 3.691406 15.949219 3.683594 15.933594 3.671875 Z M 15.933594 3.671875 "/>
  <path style="fill-rule:nonzero;fill:rgb(93.333333%,93.333333%,93.333333%);fill-opacity:1;stroke-width:2.243;stroke-linecap:butt;stroke-linejoin:round;stroke:rgb(11.764706%,11.764706%,11.764706%);stroke-opacity:1;stroke-miterlimit:4;" d="M 430.633738 247.398318 C 430.633738 250.993357 427.712769 253.914327 424.117729 253.914327 C 420.52269 253.914327 417.82641 250.993357 417.82641 247.398318 C 417.60172 243.803278 420.52269 240.882309 424.117729 240.882309 C 427.712769 240.882309 430.633738 243.803278 430.633738 247.398318 " transform="matrix(0.0173851,0,0,0.0173851,8.29856,-1.89088)"/>
  <path style=" stroke:none;fill-rule:evenodd;fill:rgb(63.921569%,68.627451%,72.156863%);fill-opacity:1;" d="M 15.621094 2.46875 C 15.621094 2.46875 15.710938 2.46875 15.71875 2.429688 C 15.730469 2.394531 15.714844 2.347656 15.714844 2.347656 C 15.714844 2.347656 15.757812 2.394531 15.746094 2.429688 C 15.734375 2.46875 15.722656 2.476562 15.691406 2.484375 C 15.667969 2.488281 15.636719 2.480469 15.621094 2.46875 Z M 15.621094 2.46875 "/>
  <path style="fill-rule:nonzero;fill:rgb(93.333333%,93.333333%,93.333333%);fill-opacity:1;stroke-width:2.243;stroke-linecap:butt;stroke-linejoin:round;stroke:rgb(11.764706%,11.764706%,11.764706%);stroke-opacity:1;stroke-miterlimit:4;" d="M 430.679156 247.414328 C 430.679156 251.009367 427.758186 253.930337 424.163147 253.930337 C 420.568107 253.930337 417.647138 251.009367 417.647138 247.414328 C 417.647138 243.819288 420.568107 240.898319 424.163147 240.898319 C 427.758186 240.898319 430.679156 243.819288 430.679156 247.414328 " transform="matrix(0.0173851,0,0,0.0173851,8.020427,-2.000533)"/>
  <path style=" stroke:none;fill-rule:evenodd;fill:rgb(63.921569%,68.627451%,72.156863%);fill-opacity:1;" d="M 15.34375 2.359375 C 15.34375 2.359375 15.433594 2.359375 15.441406 2.320312 C 15.453125 2.285156 15.4375 2.234375 15.4375 2.234375 C 15.4375 2.234375 15.480469 2.285156 15.46875 2.320312 C 15.453125 2.359375 15.441406 2.367188 15.410156 2.375 C 15.390625 2.378906 15.359375 2.371094 15.34375 2.359375 Z M 15.34375 2.359375 "/>
  <path style="fill-rule:nonzero;fill:rgb(93.333333%,93.333333%,93.333333%);fill-opacity:1;stroke-width:2.243;stroke-linecap:butt;stroke-linejoin:round;stroke:rgb(11.764706%,11.764706%,11.764706%);stroke-opacity:1;stroke-miterlimit:4;" d="M 430.720666 247.433501 C 430.720666 251.028541 427.799697 253.94951 424.204657 253.94951 C 420.609618 253.94951 417.688648 251.028541 417.688648 247.433501 C 417.688648 243.838462 420.609618 240.917492 424.204657 240.917492 C 427.799697 240.917492 430.495976 243.838462 430.720666 247.433501 " transform="matrix(0.0173851,0,0,0.0173851,7.75408,-2.125867)"/>
  <path style=" stroke:none;fill-rule:evenodd;fill:rgb(63.921569%,68.627451%,72.156863%);fill-opacity:1;" d="M 15.074219 2.234375 C 15.074219 2.234375 15.167969 2.230469 15.175781 2.195312 C 15.183594 2.160156 15.167969 2.109375 15.167969 2.109375 C 15.167969 2.109375 15.214844 2.160156 15.199219 2.195312 C 15.1875 2.230469 15.175781 2.242188 15.144531 2.25 C 15.125 2.253906 15.09375 2.246094 15.074219 2.234375 Z M 15.074219 2.234375 "/>
  <path style="fill-rule:nonzero;fill:rgb(93.333333%,93.333333%,93.333333%);fill-opacity:1;stroke-width:2.243;stroke-linecap:butt;stroke-linejoin:round;stroke:rgb(11.764706%,11.764706%,11.764706%);stroke-opacity:1;stroke-miterlimit:4;" d="M 430.545396 247.445413 C 430.545396 251.040452 427.849117 253.961422 424.254077 253.961422 C 420.659038 253.961422 417.738068 251.040452 417.738068 247.445413 C 417.738068 243.850374 420.659038 240.929404 424.029387 240.929404 C 427.624427 240.929404 430.545396 243.850374 430.545396 247.445413 " transform="matrix(0.0173851,0,0,0.0173851,7.448533,-2.19248)"/>
  <path style=" stroke:none;fill-rule:evenodd;fill:rgb(63.921569%,68.627451%,72.156863%);fill-opacity:1;" d="M 14.769531 2.167969 C 14.769531 2.167969 14.859375 2.164062 14.871094 2.128906 C 14.878906 2.09375 14.863281 2.042969 14.863281 2.042969 C 14.863281 2.042969 14.90625 2.09375 14.894531 2.128906 C 14.882812 2.164062 14.871094 2.175781 14.839844 2.183594 C 14.820312 2.1875 14.789062 2.179688 14.769531 2.167969 Z M 14.769531 2.167969 "/>
  <path style="fill-rule:nonzero;fill:rgb(93.333333%,93.333333%,93.333333%);fill-opacity:1;stroke-width:2.243;stroke-linecap:butt;stroke-linejoin:round;stroke:rgb(11.764706%,11.764706%,11.764706%);stroke-opacity:1;stroke-miterlimit:4;" d="M 430.602821 247.431081 C 430.602821 251.02612 427.681851 253.94709 424.086812 253.94709 C 420.716463 253.94709 417.795493 251.02612 417.795493 247.431081 C 417.795493 243.836041 420.491773 240.915072 424.086812 240.915072 C 427.681851 240.915072 430.602821 243.836041 430.602821 247.431081 " transform="matrix(0.0173851,0,0,0.0173851,7.08816,-2.106293)"/>
  <path style=" stroke:none;fill-rule:evenodd;fill:rgb(63.921569%,68.627451%,72.156863%);fill-opacity:1;" d="M 14.410156 2.253906 C 14.410156 2.253906 14.5 2.25 14.511719 2.214844 C 14.519531 2.179688 14.503906 2.128906 14.503906 2.128906 C 14.503906 2.128906 14.546875 2.179688 14.535156 2.214844 C 14.523438 2.25 14.511719 2.261719 14.480469 2.269531 C 14.457031 2.273438 14.425781 2.265625 14.410156 2.253906 Z M 14.410156 2.253906 "/>
  <path style="fill-rule:nonzero;fill:rgb(93.333333%,93.333333%,93.333333%);fill-opacity:1;stroke-width:2.243;stroke-linecap:butt;stroke-linejoin:round;stroke:rgb(11.764706%,11.764706%,11.764706%);stroke-opacity:1;stroke-miterlimit:4;" d="M 430.643493 247.393477 C 430.643493 250.988516 427.722523 253.909486 424.127484 253.909486 C 420.532445 253.909486 417.836165 250.988516 417.611475 247.393477 C 417.611475 243.798437 420.532445 240.877468 424.127484 240.877468 C 427.722523 240.877468 430.643493 243.798437 430.643493 247.393477 " transform="matrix(0.0173851,0,0,0.0173851,6.833547,-1.851733)"/>
  <path style=" stroke:none;fill-rule:evenodd;fill:rgb(63.921569%,68.627451%,72.156863%);fill-opacity:1;" d="M 14.15625 2.507812 C 14.15625 2.507812 14.246094 2.507812 14.253906 2.46875 C 14.265625 2.433594 14.25 2.386719 14.25 2.386719 C 14.25 2.386719 14.292969 2.433594 14.28125 2.46875 C 14.269531 2.507812 14.253906 2.515625 14.226562 2.523438 C 14.203125 2.527344 14.171875 2.519531 14.15625 2.507812 Z M 14.15625 2.507812 "/>
  <path style="fill-rule:nonzero;fill:rgb(93.333333%,93.333333%,93.333333%);fill-opacity:1;stroke-width:2.243;stroke-linecap:butt;stroke-linejoin:round;stroke:rgb(11.764706%,11.764706%,11.764706%);stroke-opacity:1;stroke-miterlimit:4;" d="M 430.660246 247.335309 C 430.660246 250.930348 427.739276 253.851318 424.144237 253.851318 C 420.549197 253.851318 417.628228 251.155038 417.628228 247.335309 C 417.628228 243.740269 420.549197 240.8193 424.144237 240.8193 C 427.739276 240.8193 430.660246 243.740269 430.660246 247.335309 " transform="matrix(0.0173851,0,0,0.0173851,6.727787,-1.495253)"/>
  <path style=" stroke:none;fill-rule:evenodd;fill:rgb(63.921569%,68.627451%,72.156863%);fill-opacity:1;" d="M 14.050781 2.863281 C 14.050781 2.863281 14.140625 2.863281 14.148438 2.824219 C 14.160156 2.789062 14.144531 2.742188 14.144531 2.742188 C 14.144531 2.742188 14.1875 2.789062 14.175781 2.824219 C 14.160156 2.863281 14.148438 2.871094 14.117188 2.878906 C 14.097656 2.882812 14.066406 2.875 14.050781 2.863281 Z M 14.050781 2.863281 "/>
  <path style="fill-rule:nonzero;fill:rgb(93.333333%,93.333333%,93.333333%);fill-opacity:1;stroke-width:2.243;stroke-linecap:butt;stroke-linejoin:round;stroke:rgb(11.764706%,11.764706%,11.764706%);stroke-opacity:1;stroke-miterlimit:4;" d="M 430.653823 247.498667 C 430.653823 251.093707 427.732853 254.014676 424.137814 254.014676 C 420.542774 254.014676 417.846495 251.093707 417.621805 247.498667 C 417.621805 243.903628 420.542774 240.982658 424.137814 240.757969 C 427.732853 240.757969 430.653823 243.678938 430.653823 247.273977 " transform="matrix(0.0173851,0,0,0.0173851,6.774773,-1.123093)"/>
  <path style=" stroke:none;fill-rule:evenodd;fill:rgb(63.921569%,68.627451%,72.156863%);fill-opacity:1;" d="M 14.097656 3.238281 C 14.097656 3.238281 14.1875 3.234375 14.195312 3.199219 C 14.207031 3.160156 14.191406 3.113281 14.191406 3.113281 C 14.191406 3.113281 14.234375 3.160156 14.222656 3.199219 C 14.210938 3.234375 14.195312 3.246094 14.164062 3.25 C 14.144531 3.257812 14.113281 3.25 14.097656 3.238281 Z M 14.097656 3.238281 "/>
  <path style="fill-rule:nonzero;fill:rgb(93.333333%,93.333333%,93.333333%);fill-opacity:1;stroke-width:2.243;stroke-linecap:butt;stroke-linejoin:round;stroke:rgb(11.764706%,11.764706%,11.764706%);stroke-opacity:1;stroke-miterlimit:4;" d="M 430.625158 247.445988 C 430.625158 251.041028 427.704189 253.961997 424.109149 253.961997 C 420.7388 253.961997 417.81783 251.041028 417.81783 247.445988 C 417.81783 243.850949 420.51411 240.929979 424.109149 240.929979 C 427.704189 240.929979 430.625158 243.850949 430.625158 247.445988 " transform="matrix(0.0173851,0,0,0.0173851,6.947147,-0.78624)"/>
  <path style=" stroke:none;fill-rule:evenodd;fill:rgb(63.921569%,68.627451%,72.156863%);fill-opacity:1;" d="M 14.269531 3.574219 C 14.269531 3.574219 14.359375 3.570312 14.367188 3.535156 C 14.378906 3.5 14.363281 3.449219 14.363281 3.449219 C 14.363281 3.449219 14.40625 3.5 14.394531 3.535156 C 14.382812 3.570312 14.371094 3.582031 14.339844 3.589844 C 14.316406 3.59375 14.285156 3.585938 14.269531 3.574219 Z M 14.269531 3.574219 "/>
  <path style="fill-rule:nonzero;fill:rgb(93.333333%,93.333333%,93.333333%);fill-opacity:1;stroke-width:2.832238;stroke-linecap:butt;stroke-linejoin:round;stroke:rgb(11.764706%,11.764706%,11.764706%);stroke-opacity:1;stroke-miterlimit:4;" d="M 430.622539 247.524632 C 430.615824 251.012778 427.840784 254.035726 424.194927 253.888302 C 420.456346 253.957915 417.669876 250.930867 417.676591 247.442722 C 417.776031 243.73754 420.458346 240.931628 424.196928 240.862015 C 427.589469 240.734253 430.721979 243.81945 430.715264 247.307596 " transform="matrix(0.0105323,-0.00282187,0.00449973,0.0167925,8.97968,1)"/>
  <path style=" stroke:none;fill-rule:evenodd;fill:rgb(63.921569%,68.627451%,72.156863%);fill-opacity:1;" d="M 14.542969 4.023438 C 14.542969 4.023438 14.597656 4.007812 14.59375 3.96875 C 14.589844 3.933594 14.570312 3.886719 14.570312 3.886719 C 14.570312 3.886719 14.605469 3.925781 14.609375 3.964844 C 14.613281 4.003906 14.605469 4.015625 14.589844 4.027344 C 14.578125 4.035156 14.558594 4.03125 14.542969 4.023438 Z M 14.542969 4.023438 "/>
  <path style="fill-rule:nonzero;fill:rgb(93.333333%,93.333333%,93.333333%);fill-opacity:1;stroke-width:2.832238;stroke-linecap:butt;stroke-linejoin:round;stroke:rgb(11.764706%,11.764706%,11.764706%);stroke-opacity:1;stroke-miterlimit:4;" d="M 430.775286 247.37444 C 430.757746 251.080114 427.790462 253.853896 424.140728 253.956125 C 420.490994 254.058355 417.811968 251.001634 417.915363 247.514102 C 417.585101 243.86228 420.46653 240.870356 424.116264 240.768126 C 427.851853 240.884039 430.445024 243.722618 430.775286 247.37444 " transform="matrix(0.0105861,0.00261333,-0.0041664,0.0168784,13.99776,-1.340107)"/>
  <path style=" stroke:none;fill-rule:evenodd;fill:rgb(63.921569%,68.627451%,72.156863%);fill-opacity:1;" d="M 17.410156 3.992188 C 17.410156 3.992188 17.46875 4.003906 17.480469 3.972656 C 17.496094 3.9375 17.5 3.886719 17.5 3.886719 C 17.5 3.886719 17.511719 3.941406 17.496094 3.972656 C 17.480469 4.007812 17.46875 4.015625 17.449219 4.019531 C 17.4375 4.019531 17.417969 4.007812 17.410156 3.992188 Z M 17.410156 3.992188 "/>
  <path style="fill-rule:evenodd;fill:rgb(70.196078%,63.137255%,57.254902%);fill-opacity:1;stroke-width:0.731154;stroke-linecap:butt;stroke-linejoin:miter;stroke:rgb(0%,0%,0%);stroke-opacity:1;stroke-miterlimit:4;" d="M 297.949219 33.618164 L 298.095703 37.207031 C 298.095703 37.207031 293.847656 37.573242 293.701172 37.939453 C 292.895508 39.770508 294.726562 42.260742 294.726562 42.260742 C 294.726562 42.260742 296.118164 41.235352 299.707031 41.235352 C 303.076172 41.235352 304.833984 42.041016 304.833984 42.041016 C 304.833984 42.041016 305.786133 40.576172 305.786133 39.550781 C 305.786133 38.452148 305.34668 37.426758 305.34668 37.426758 C 305.34668 37.426758 303.662109 37.207031 303.076172 37.207031 L 301.611328 37.207031 L 301.464844 33.544922 Z M 297.949219 33.618164 " transform="matrix(0.0533333,0,0,0.0533333,0,0)"/>
  <path style="fill-rule:nonzero;fill:rgb(94.117647%,86.666667%,79.607843%);fill-opacity:1;stroke-width:0.372585;stroke-linecap:butt;stroke-linejoin:round;stroke:rgb(7.058824%,6.666667%,8.627451%);stroke-opacity:1;stroke-miterlimit:4;" d="M 303.955078 39.18457 C 303.955078 39.550781 303.662109 39.916992 303.222656 39.916992 C 302.783203 39.916992 302.490234 39.550781 302.490234 39.18457 C 302.490234 38.745117 302.783203 38.452148 303.222656 38.452148 C 303.662109 38.452148 303.955078 38.745117 303.955078 39.18457 M 305.712891 39.550781 C 305.712891 39.990234 305.34668 40.283203 304.907227 40.283203 C 304.467773 40.283203 304.174805 39.990234 304.101562 39.550781 C 304.101562 39.111328 304.467773 38.818359 304.907227 38.818359 C 305.34668 38.818359 305.712891 39.111328 305.712891 39.550781 M 302.197266 39.111328 C 302.197266 39.550781 301.904297 39.84375 301.464844 39.84375 C 301.025391 39.84375 300.732422 39.550781 300.732422 39.111328 C 300.732422 38.745117 301.025391 38.378906 301.464844 38.378906 C 301.904297 38.378906 302.197266 38.745117 302.197266 39.111328 M 298.754883 39.18457 C 298.754883 39.550781 298.388672 39.916992 297.949219 39.916992 C 297.509766 39.916992 297.143555 39.624023 297.143555 39.18457 C 297.143555 38.745117 297.509766 38.452148 297.949219 38.452148 C 298.388672 38.378906 298.754883 38.745117 298.754883 39.18457 M 296.777344 39.331055 C 296.777344 39.697266 296.484375 40.063477 296.044922 40.063477 C 295.605469 40.063477 295.239258 39.697266 295.239258 39.331055 C 295.239258 38.891602 295.605469 38.525391 295.97168 38.525391 C 296.411133 38.525391 296.777344 38.891602 296.777344 39.257812 M 300.366211 37.133789 C 300.366211 37.5 300.073242 37.792969 299.707031 37.719727 C 299.34082 37.792969 299.047852 37.5 299.047852 37.133789 C 299.047852 36.767578 299.34082 36.474609 299.707031 36.474609 C 300.073242 36.474609 300.366211 36.767578 300.366211 37.133789 M 300.366211 34.130859 C 300.366211 34.49707 300.073242 34.790039 299.707031 34.790039 C 299.34082 34.790039 299.047852 34.49707 299.047852 34.130859 C 299.047852 33.837891 299.34082 33.544922 299.707031 33.544922 C 300.073242 33.544922 300.366211 33.764648 300.366211 34.130859 M 300.366211 35.742188 C 300.366211 36.108398 300.073242 36.401367 299.707031 36.401367 C 299.34082 36.401367 299.047852 36.108398 299.047852 35.742188 C 299.047852 35.375977 299.34082 35.083008 299.707031 35.083008 C 300.073242 35.083008 300.366211 35.375977 300.366211 35.742188 " transform="matrix(0.0533333,0,0,0.0533333,0,0)"/>
  <path style="fill-rule:nonzero;fill:rgb(94.117647%,86.666667%,79.607843%);fill-opacity:1;stroke-width:0.372586;stroke-linecap:butt;stroke-linejoin:round;stroke:rgb(7.058824%,6.666667%,8.627451%);stroke-opacity:1;stroke-miterlimit:4;" d="M 294.799805 39.84375 C 294.799805 40.209961 294.506836 40.576172 294.067383 40.576172 C 293.62793 40.576172 293.334961 40.209961 293.334961 39.84375 C 293.334961 39.404297 293.62793 39.111328 294.067383 39.111328 C 294.506836 39.111328 294.799805 39.404297 294.799805 39.84375 " transform="matrix(0.0533333,0,0,0.0533333,0,0)"/>
  <path style="fill-rule:nonzero;fill:rgb(56.862745%,42.352941%,40.784314%);fill-opacity:1;stroke-width:0.372585;stroke-linecap:butt;stroke-linejoin:round;stroke:rgb(30.196078%,19.215686%,14.901961%);stroke-opacity:1;stroke-miterlimit:4;" d="M 300.512695 38.964844 C 300.512695 39.404297 300.146484 39.770508 299.707031 39.770508 C 299.267578 39.770508 298.828125 39.404297 298.828125 38.964844 C 298.828125 38.525391 299.194336 38.15918 299.707031 38.15918 C 300.146484 38.15918 300.512695 38.525391 300.512695 38.964844 " transform="matrix(0.0533333,0,0,0.0533333,0,0)"/>
  <path style="fill-rule:nonzero;fill:rgb(93.333333%,93.333333%,93.333333%);fill-opacity:1;stroke-width:3.030718;stroke-linecap:butt;stroke-linejoin:round;stroke:rgb(11.764706%,11.764706%,11.764706%);stroke-opacity:1;stroke-miterlimit:4;" d="M 430.745531 247.456865 C 430.745531 251.1 427.709585 253.832351 424.066451 253.832351 C 420.726911 253.832351 417.690965 251.1 417.690965 247.456865 C 417.690965 243.813731 420.726911 240.777785 424.066451 240.777785 C 427.709585 240.777785 430.745531 243.813731 430.745531 247.456865 " transform="matrix(0.0128667,0,0,0.0128667,10.528053,-1.66832)"/>
  <path style=" stroke:none;fill-rule:evenodd;fill:rgb(63.921569%,68.627451%,72.156863%);fill-opacity:1;" d="M 15.945312 1.558594 C 15.945312 1.558594 16.015625 1.558594 16.019531 1.53125 C 16.027344 1.503906 16.015625 1.46875 16.015625 1.46875 C 16.015625 1.46875 16.046875 1.503906 16.039062 1.53125 C 16.03125 1.558594 16.019531 1.5625 16 1.570312 C 15.984375 1.574219 15.960938 1.566406 15.945312 1.558594 Z M 15.945312 1.558594 "/>
  <path style="fill-rule:evenodd;fill:rgb(100%,80%,0%);fill-opacity:1;stroke-width:0.325972;stroke-linecap:butt;stroke-linejoin:miter;stroke:rgb(0%,0%,0%);stroke-opacity:1;stroke-miterlimit:4;" d="M 274.951172 81.298828 C 274.951172 81.298828 276.342773 82.617188 276.708984 83.789062 C 277.075195 84.960938 277.661133 88.037109 277.661133 88.037109 C 277.661133 88.037109 292.236328 84.008789 299.34082 84.375 C 306.445312 84.667969 322.924805 88.256836 322.924805 88.256836 C 322.924805 88.256836 323.144531 86.499023 323.510742 84.667969 C 323.803711 82.836914 325.195312 80.786133 325.195312 80.786133 C 325.195312 80.786133 309.448242 75.878906 299.560547 76.318359 C 289.672852 76.831055 284.692383 77.856445 282.495117 78.588867 C 280.224609 79.248047 274.804688 81.37207 274.951172 81.298828 Z M 274.951172 81.298828 " transform="matrix(0.0533333,0,0,0.0533333,0,0)"/>
  <path style="fill-rule:evenodd;fill:rgb(100%,80%,0%);fill-opacity:1;stroke-width:0.731154;stroke-linecap:butt;stroke-linejoin:miter;stroke:rgb(0%,0%,0%);stroke-opacity:1;stroke-miterlimit:4;" d="M 296.630859 22.558594 L 302.929688 22.558594 C 302.929688 22.558594 301.391602 23.583984 301.025391 24.609375 C 300.805664 25.488281 300.878906 26.953125 300.878906 26.953125 C 300.878906 26.953125 302.563477 26.953125 303.295898 26.293945 C 304.101562 25.634766 305.712891 24.536133 305.712891 24.536133 L 305.712891 32.446289 C 305.712891 32.446289 304.174805 30.981445 303.222656 30.46875 C 302.490234 30.102539 301.757812 29.882812 300.952148 29.663086 C 300.952148 29.663086 300.952148 30.981445 301.538086 31.713867 C 302.050781 32.519531 304.174805 35.375977 304.174805 35.375977 L 295.239258 35.742188 C 295.239258 35.742188 297.363281 33.47168 298.242188 31.860352 C 298.754883 30.761719 298.535156 29.663086 298.535156 29.663086 C 298.535156 29.663086 297.070312 29.663086 296.264648 30.249023 C 295.532227 30.761719 294.213867 32.373047 294.213867 32.373047 L 294.213867 24.682617 C 294.213867 24.682617 294.799805 26.147461 296.044922 26.733398 C 297.290039 27.319336 298.461914 27.026367 298.461914 27.026367 C 298.461914 27.026367 298.681641 25.488281 298.168945 24.536133 C 297.65625 23.583984 296.557617 22.485352 296.630859 22.558594 Z M 296.630859 22.558594 " transform="matrix(0.0533333,0,0,0.0533333,0,0)"/>
  <path style="fill-rule:evenodd;fill:rgb(100%,80%,0%);fill-opacity:1;stroke-width:0.731154;stroke-linecap:butt;stroke-linejoin:miter;stroke:rgb(7.058824%,6.666667%,8.627451%);stroke-opacity:1;stroke-miterlimit:4;" d="M 296.191406 47.753906 C 296.191406 47.753906 291.723633 47.753906 287.915039 45.483398 C 284.106445 43.212891 280.297852 40.869141 274.658203 42.1875 C 273.486328 42.480469 269.238281 44.384766 267.333984 50.390625 C 266.015625 54.638672 267.553711 59.765625 268.87207 62.109375 C 270.263672 64.379883 272.387695 66.723633 272.387695 66.723633 L 274.731445 65.185547 C 274.731445 65.185547 268.87207 60.205078 269.53125 53.759766 C 270.263672 47.387695 273.486328 45.849609 273.486328 45.849609 C 273.486328 45.849609 277.441406 42.773438 282.714844 45.703125 C 288.061523 48.632812 293.261719 49.951172 293.261719 49.951172 C 293.261719 49.951172 298.095703 51.123047 298.535156 51.123047 C 298.974609 51.049805 296.044922 47.753906 296.191406 47.753906 Z M 296.191406 47.753906 " transform="matrix(0.0533333,0,0,0.0533333,0,0)"/>
  <path style="fill-rule:evenodd;fill:rgb(100%,80%,0%);fill-opacity:1;stroke-width:0.749735;stroke-linecap:butt;stroke-linejoin:miter;stroke:rgb(0%,0%,0%);stroke-opacity:1;stroke-miterlimit:4;" d="M 271.582031 71.923828 L 269.238281 67.236328 L 276.269531 64.453125 C 276.269531 64.453125 274.584961 66.796875 274.145508 68.408203 C 273.706055 70.385742 273.852539 72.070312 273.852539 72.070312 C 273.852539 72.070312 274.511719 71.557617 275.317383 70.239258 C 275.90332 69.287109 276.928711 65.698242 276.928711 65.698242 L 280.151367 75.878906 C 280.151367 75.952148 278.466797 74.267578 277.294922 74.047852 C 276.049805 73.828125 274.438477 74.267578 274.438477 74.267578 L 272.53418 74.853516 Z M 271.582031 71.923828 " transform="matrix(0.0533333,0,0,0.0533333,0,0)"/>
  <path style="fill-rule:evenodd;fill:rgb(100%,80%,0%);fill-opacity:1;stroke-width:0.731154;stroke-linecap:butt;stroke-linejoin:miter;stroke:rgb(7.058824%,6.666667%,8.627451%);stroke-opacity:1;stroke-miterlimit:4;" d="M 304.174805 47.680664 C 304.174805 47.680664 308.642578 47.607422 312.451172 45.410156 C 316.259766 43.139648 320.068359 40.795898 325.708008 42.114258 C 326.879883 42.407227 331.12793 44.238281 333.032227 50.317383 C 334.350586 54.56543 332.8125 59.692383 331.494141 62.036133 C 330.102539 64.306641 329.223633 65.698242 329.223633 65.698242 L 326.44043 64.672852 C 326.44043 64.672852 331.494141 60.131836 330.834961 53.686523 C 330.102539 47.241211 326.879883 45.776367 326.879883 45.776367 C 326.879883 45.776367 322.924805 42.626953 317.651367 45.629883 C 312.304688 48.55957 307.104492 49.87793 307.104492 49.87793 C 307.104492 49.87793 302.270508 51.049805 301.831055 51.049805 C 301.391602 50.976562 304.321289 47.607422 304.174805 47.680664 Z M 304.174805 47.680664 " transform="matrix(0.0533333,0,0,0.0533333,0,0)"/>
  <path style="fill-rule:nonzero;fill:rgb(100%,80%,0%);fill-opacity:1;stroke-width:0.731154;stroke-linecap:butt;stroke-linejoin:round;stroke:rgb(7.058824%,6.666667%,8.627451%);stroke-opacity:1;stroke-miterlimit:4;" d="M 301.904297 43.286133 L 303.735352 43.286133 L 303.735352 60.644531 L 301.904297 60.644531 Z M 295.605469 43.212891 L 297.802734 43.212891 L 297.802734 60.571289 L 295.605469 60.571289 Z M 295.605469 43.212891 " transform="matrix(0.0533333,0,0,0.0533333,0,0)"/>
  <path style="fill-rule:nonzero;fill:rgb(100%,80%,0%);fill-opacity:1;stroke-width:0.731154;stroke-linecap:butt;stroke-linejoin:round;stroke:rgb(7.058824%,6.666667%,8.627451%);stroke-opacity:1;stroke-miterlimit:4;" d="M 305.786133 39.18457 C 305.786133 42.260742 303.076172 44.750977 299.707031 44.750977 C 296.337891 44.750977 293.62793 42.260742 293.62793 39.257812 C 293.62793 36.181641 296.337891 33.618164 299.633789 33.618164 C 303.00293 33.618164 305.712891 36.108398 305.786133 39.18457 " transform="matrix(0.0533333,0,0,0.0533333,0,0)"/>
  <path style="fill-rule:evenodd;fill:rgb(100%,80%,0%);fill-opacity:1;stroke-width:0.619346;stroke-linecap:butt;stroke-linejoin:miter;stroke:rgb(0%,0%,0%);stroke-opacity:1;stroke-miterlimit:4;" d="M 294.287109 60.498047 L 304.760742 60.351562 C 304.760742 60.351562 303.515625 61.083984 302.490234 62.988281 C 301.391602 64.819336 301.538086 65.991211 301.538086 65.991211 C 301.538086 65.991211 303.149414 65.991211 304.248047 65.185547 C 305.419922 64.379883 306.665039 62.841797 306.665039 62.841797 L 306.591797 72.436523 C 306.591797 72.436523 305.859375 71.264648 304.614258 70.532227 C 303.369141 69.799805 301.611328 69.799805 301.611328 69.799805 L 298.022461 69.799805 C 298.022461 69.799805 296.411133 69.873047 295.678711 70.385742 C 294.65332 71.044922 293.334961 72.363281 293.334961 72.363281 L 293.188477 63.28125 C 293.188477 63.28125 293.701172 64.892578 295.385742 65.478516 C 297.070312 66.137695 297.949219 66.064453 297.949219 66.064453 C 297.949219 66.064453 297.949219 64.013672 297.143555 62.988281 C 296.264648 61.889648 294.287109 60.498047 294.287109 60.498047 Z M 294.287109 60.498047 " transform="matrix(0.0533333,0,0,0.0533333,0,0)"/>
  <path style="fill-rule:evenodd;fill:rgb(96.470588%,79.215686%,12.156863%);fill-opacity:1;stroke-width:0.586749;stroke-linecap:butt;stroke-linejoin:miter;stroke:rgb(0%,0%,0%);stroke-opacity:1;stroke-miterlimit:4;" d="M 300.146484 68.041992 C 300.146484 68.041992 301.68457 71.557617 303.442383 73.168945 C 304.467773 74.047852 307.543945 74.780273 308.935547 74.414062 C 312.084961 73.608398 314.282227 71.044922 314.282227 71.044922 C 314.282227 71.044922 314.208984 73.828125 316.113281 75.366211 C 318.09082 76.904297 319.702148 77.270508 321.313477 76.831055 C 322.998047 76.391602 327.612305 72.949219 327.612305 72.949219 L 328.564453 73.754883 C 328.564453 73.754883 325.927734 76.318359 323.144531 77.709961 C 321.679688 78.442383 317.358398 78.00293 315.893555 76.904297 C 314.501953 75.732422 313.696289 73.022461 313.696289 73.022461 C 313.696289 73.022461 312.817383 74.780273 310.913086 75.439453 C 309.082031 76.025391 306.518555 76.025391 304.174805 75.292969 C 302.563477 74.853516 300.439453 72.65625 300.073242 71.923828 C 299.707031 71.191406 299.780273 70.751953 299.780273 70.751953 C 299.780273 70.751953 298.608398 74.121094 296.191406 75.073242 C 293.847656 75.952148 291.210938 75.952148 289.013672 75.292969 C 286.743164 74.633789 286.59668 73.388672 286.59668 73.388672 C 286.59668 73.388672 286.450195 76.904297 281.542969 77.929688 C 276.5625 78.955078 272.680664 75.366211 272.680664 75.366211 L 273.413086 74.34082 C 273.413086 74.34082 276.123047 77.416992 280.371094 77.124023 C 284.619141 76.904297 286.010742 71.484375 286.010742 71.484375 C 286.010742 71.484375 287.915039 74.267578 292.822266 74.34082 C 297.802734 74.414062 299.194336 67.895508 299.194336 67.895508 Z M 300.146484 68.041992 " transform="matrix(0.0533333,0,0,0.0533333,0,0)"/>
  <path style="fill-rule:evenodd;fill:rgb(100%,80%,0%);fill-opacity:1;stroke-width:2.2;stroke-linecap:butt;stroke-linejoin:miter;stroke:rgb(0%,0%,0%);stroke-opacity:1;stroke-miterlimit:4;" d="M 338.635577 336.321666 C 338.635577 336.321666 338.635577 330.929107 339.759027 329.356277 C 341.331857 327.109377 343.578756 327.109377 344.702206 327.334067 C 346.050346 327.783447 347.623176 328.906897 347.398486 332.726626 C 347.173796 336.321666 346.050346 338.119186 347.173796 339.692015 C 348.297246 341.040155 348.521935 341.938915 350.544145 341.714225 C 352.566355 341.264845 353.689805 340.590775 353.240425 338.568566 C 352.566355 336.771046 352.116975 338.793256 351.667595 337.220426 C 351.218215 335.422906 353.689805 328.457517 353.240425 323.963718 C 353.015735 319.694609 351.218215 316.324259 348.072556 315.425499 C 344.926896 314.526739 342.230617 314.526739 339.309647 316.773639 C 336.613367 318.795849 333.018328 325.311858 333.018328 325.311858 L 333.018328 339.692015 L 338.635577 339.242635 Z M 338.635577 336.321666 " transform="matrix(0.0173851,0,0,0.0173851,9.468267,-2.108693)"/>
  <path style="fill-rule:evenodd;fill:rgb(100%,80%,0%);fill-opacity:1;stroke-width:2.2;stroke-linecap:butt;stroke-linejoin:miter;stroke:rgb(0%,0%,0%);stroke-opacity:1;stroke-miterlimit:4;" d="M 327.850459 340.141395 C 327.850459 340.141395 325.603559 335.422906 323.806039 334.299456 C 321.55914 332.951316 319.53693 333.625386 318.63817 334.299456 C 317.51472 335.422906 316.615961 336.995736 318.18879 340.366085 C 319.98631 343.511745 321.55914 344.859885 321.10976 346.657404 C 320.66038 348.230234 320.88507 349.128994 318.86286 349.803064 C 316.840651 350.252444 315.717201 350.027754 315.267821 348.005544 C 315.043131 346.208024 316.391271 347.780854 316.166581 346.208024 C 315.717201 344.410505 310.774022 339.017945 309.425882 334.748836 C 308.077742 330.704417 308.077742 326.884687 310.774022 324.637788 C 313.245611 322.615578 315.717201 321.716818 319.31224 322.390888 C 322.68259 323.289648 328.524529 328.008137 328.524529 328.008137 L 334.366468 341.040155 L 328.749219 343.062365 Z M 327.850459 340.141395 " transform="matrix(0.0173851,0,0,0.0173851,9.468267,-2.108693)"/>
  <path style="fill-rule:evenodd;fill:rgb(100%,80%,0%);fill-opacity:1;stroke-width:2.2;stroke-linecap:butt;stroke-linejoin:miter;stroke:rgb(0%,0%,0%);stroke-opacity:1;stroke-miterlimit:4;" d="M 326.727009 297.899682 C 326.727009 297.899682 321.10976 307.336661 322.23321 314.751429 C 323.58135 321.941508 330.996118 337.669806 330.996118 337.669806 L 331.220808 339.692015 L 335.265228 339.242635 L 334.366468 337.220426 C 334.366468 337.220426 336.388677 318.346469 335.040538 312.50453 C 334.141778 308.01073 326.727009 297.899682 326.727009 297.899682 Z M 335.714608 341.264845 C 335.714608 341.264845 338.410887 344.635195 341.781237 346.208024 C 345.600966 348.005544 346.949106 348.230234 348.521935 347.106784 C 349.645385 346.208024 349.196005 342.837675 348.072556 341.938915 C 346.724416 340.815465 345.376276 341.489535 345.151586 342.388295 C 344.702206 343.961125 344.252826 343.736435 343.129376 343.287055 C 341.331857 342.388295 337.512127 339.916705 337.512127 339.916705 Z M 331.220808 342.163605 C 331.220808 342.163605 330.097358 346.208024 327.625769 349.128994 C 325.154179 352.274653 323.806039 352.948723 322.00852 352.499343 C 320.66038 352.274653 319.53693 348.904304 320.211 347.556164 C 321.10976 346.208024 322.4579 346.208024 323.13197 346.882094 C 324.030729 348.230234 324.480109 347.780854 325.378869 346.882094 C 326.502319 345.309264 328.973909 341.489535 328.973909 341.489535 Z M 331.220808 342.163605 " transform="matrix(0.0173851,0,0,0.0173851,9.468267,-2.108693)"/>
  <path style="fill-rule:nonzero;fill:rgb(100%,80%,0%);fill-opacity:1;stroke-width:2.2;stroke-linecap:butt;stroke-linejoin:round;stroke:rgb(0%,0%,0%);stroke-opacity:1;stroke-miterlimit:4;" d="M 342.141442 342.049529 C 342.177168 343.19467 338.149863 344.113876 333.347704 344.219607 C 328.323952 344.288164 324.409614 343.175854 324.373888 342.030712 C 324.375336 340.663977 328.402641 339.744772 333.2048 339.639041 C 338.006959 339.53331 342.14289 340.682794 342.178616 341.827935 " transform="matrix(0.0171455,-0.00287625,0.00287625,0.0171455,8.564062,-1.099273)"/>
  <path style="fill-rule:evenodd;fill:rgb(100%,80%,0%);fill-opacity:1;stroke-width:2.2;stroke-linecap:butt;stroke-linejoin:miter;stroke:rgb(0%,0%,0%);stroke-opacity:1;stroke-miterlimit:4;" d="M 338.619034 336.184586 C 338.619034 336.184586 338.569013 330.924967 339.937228 329.45295 C 341.489915 327.192084 343.620089 327.114233 344.698151 327.430336 C 346.275849 327.79928 347.669075 328.957073 347.377983 332.664945 C 347.08689 336.372817 346.086679 338.186887 347.137851 339.712684 C 348.320655 340.949268 348.425396 341.869749 350.476779 341.581475 C 352.738585 341.21441 353.711905 340.610033 353.213209 338.637441 C 352.714513 336.664849 352.082307 338.820974 351.662402 337.058804 C 351.321288 335.507056 353.691593 328.381466 353.246677 323.989486 C 352.880552 319.807929 351.330684 316.30954 347.886075 315.44002 C 344.941102 314.623342 342.311292 314.648352 339.259698 316.750697 C 336.628949 318.695459 332.891368 325.373315 332.891368 325.373315 L 332.989531 339.732057 L 338.801627 339.235241 Z M 338.619034 336.184586 " transform="matrix(0.0162811,0.00609634,-0.00609634,0.0162811,13.391862,-3.764363)"/>
  <path style="fill-rule:evenodd;fill:rgb(100%,80%,0%);fill-opacity:1;stroke-width:2.2;stroke-linecap:butt;stroke-linejoin:miter;stroke:rgb(0%,0%,0%);stroke-opacity:1;stroke-miterlimit:4;" d="M 327.887494 340.202923 C 327.887494 340.202923 325.575667 335.310368 323.761596 334.310158 C 321.500731 332.75747 319.475298 333.755802 318.501977 334.360179 C 317.397025 335.253769 316.607236 336.989049 318.367527 340.408647 C 320.049026 343.617823 321.731465 344.907247 321.152099 346.563736 C 320.861946 348.351856 320.966687 349.272337 318.994095 349.771033 C 316.811081 350.34852 315.733018 350.032416 315.234323 348.059824 C 314.946049 346.008441 316.365225 347.876292 316.155743 346.035331 C 315.814628 344.483584 310.847041 338.905982 309.271223 334.697534 C 307.984618 330.620719 308.196919 326.702424 310.827669 324.757662 C 313.379627 322.602477 315.694273 321.735777 319.349305 322.526505 C 322.5047 323.264393 328.57724 327.948405 328.57724 327.948405 L 334.172335 340.968641 L 328.911776 342.938414 Z M 327.887494 340.202923 " transform="matrix(0.0162811,0.00609634,-0.00609634,0.0162811,13.391862,-3.764363)"/>
  <path style="fill-rule:evenodd;fill:rgb(100%,80%,0%);fill-opacity:1;stroke-width:2.2;stroke-linecap:butt;stroke-linejoin:miter;stroke:rgb(0%,0%,0%);stroke-opacity:1;stroke-miterlimit:4;" d="M 326.698473 297.941497 C 326.698473 297.941497 321.144942 307.458645 322.193295 314.743697 C 323.452071 321.949958 330.991929 337.600943 330.991929 337.600943 L 331.06978 339.731117 L 335.251337 339.364993 L 334.174214 337.129138 C 334.174214 337.129138 336.260945 318.353405 335.05407 312.56726 C 334.109519 308.12244 326.698473 297.941497 326.698473 297.941497 Z M 335.750033 341.337585 C 335.750033 341.337585 338.430804 344.652442 341.901363 346.232019 C 345.529504 348.232441 347.160043 348.101749 348.475417 347.129368 C 349.58037 346.235778 349.240195 342.764279 347.92576 341.816908 C 346.611325 340.869538 345.348791 341.342283 345.032688 342.420345 C 344.663744 343.998043 344.085317 343.73478 342.928464 343.208255 C 341.403607 342.339675 337.407461 339.997199 337.407461 339.997199 Z M 331.226422 342.071714 C 331.226422 342.071714 330.172431 346.305172 327.646423 349.170415 C 324.988783 352.324871 323.80504 353.008038 321.938129 352.507463 C 320.649644 352.270151 319.678203 349.035024 320.33636 347.588958 C 321.073308 346.353314 322.625056 346.0122 323.150642 346.775098 C 324.123023 348.090473 324.543868 347.932891 325.359607 346.907669 C 326.438608 345.304021 329.070297 341.439507 329.070297 341.439507 Z M 331.226422 342.071714 " transform="matrix(0.0162811,0.00609634,-0.00609634,0.0162811,13.391862,-3.764363)"/>
  <path style="fill-rule:nonzero;fill:rgb(100%,80%,0%);fill-opacity:1;stroke-width:2.2;stroke-linecap:butt;stroke-linejoin:round;stroke:rgb(0%,0%,0%);stroke-opacity:1;stroke-miterlimit:4;" d="M 342.041305 341.99835 C 342.035168 343.144032 338.107981 344.136511 333.304693 344.154846 C 328.280846 344.216065 324.408818 343.137739 324.414955 341.992057 C 324.378208 340.625815 328.305396 339.633336 333.108683 339.615002 C 338.132531 339.553783 342.004559 340.632108 342.041305 341.99835 " transform="matrix(0.0170655,0.00331812,-0.00331812,0.0170655,12.192224,-3.135363)"/>
  <path style="fill-rule:evenodd;fill:rgb(80%,65.490196%,8.235294%);fill-opacity:1;stroke-width:0.325972;stroke-linecap:butt;stroke-linejoin:miter;stroke:rgb(0%,0%,0%);stroke-opacity:1;stroke-miterlimit:4;" d="M 274.438477 81.152344 C 274.438477 81.152344 274.731445 82.470703 275.463867 81.811523 C 276.196289 81.079102 286.230469 77.124023 300.439453 77.124023 C 314.575195 77.124023 323.876953 81.079102 324.462891 81.298828 C 324.975586 81.518555 325.195312 81.811523 325.708008 81.298828 C 326.220703 80.712891 325.195312 79.907227 325.195312 79.907227 C 325.195312 79.907227 315.380859 75.65918 300 75.732422 C 284.619141 75.805664 274.584961 80.200195 274.584961 80.200195 C 274.584961 80.200195 273.925781 80.712891 274.438477 81.152344 Z M 274.438477 81.152344 " transform="matrix(0.0533333,0,0,0.0533333,0,0)"/>
  <path style=" stroke:none;fill-rule:evenodd;fill:rgb(0%,0%,0%);fill-opacity:1;" d="M 15.59375 4.644531 C 15.59375 4.644531 15.617188 4.578125 15.660156 4.5625 C 15.695312 4.554688 15.746094 4.585938 15.746094 4.585938 C 15.746094 4.585938 15.683594 4.582031 15.664062 4.589844 C 15.644531 4.601562 15.640625 4.632812 15.640625 4.632812 C 15.640625 4.632812 15.652344 4.609375 15.703125 4.609375 C 15.753906 4.613281 15.757812 4.613281 15.757812 4.613281 C 15.757812 4.613281 15.675781 4.621094 15.65625 4.644531 C 15.636719 4.667969 15.734375 4.679688 15.734375 4.679688 C 15.734375 4.679688 15.585938 4.679688 15.566406 4.667969 C 15.546875 4.660156 15.53125 4.628906 15.5 4.640625 C 15.464844 4.648438 15.433594 4.679688 15.433594 4.679688 C 15.433594 4.679688 15.46875 4.613281 15.492188 4.613281 C 15.519531 4.613281 15.53125 4.613281 15.554688 4.621094 C 15.574219 4.632812 15.59375 4.644531 15.59375 4.644531 Z M 15.035156 4.765625 C 15.035156 4.765625 15.046875 4.695312 15.085938 4.671875 C 15.117188 4.65625 15.175781 4.679688 15.175781 4.679688 C 15.175781 4.679688 15.113281 4.6875 15.09375 4.699219 C 15.078125 4.714844 15.078125 4.746094 15.078125 4.746094 C 15.078125 4.746094 15.089844 4.71875 15.136719 4.710938 C 15.183594 4.707031 15.191406 4.703125 15.191406 4.703125 C 15.191406 4.703125 15.109375 4.726562 15.097656 4.753906 C 15.082031 4.78125 15.179688 4.773438 15.179688 4.773438 C 15.179688 4.773438 15.03125 4.800781 15.011719 4.796875 C 14.992188 4.789062 14.972656 4.761719 14.941406 4.777344 C 14.910156 4.792969 14.882812 4.828125 14.882812 4.828125 C 14.882812 4.828125 14.910156 4.757812 14.933594 4.753906 C 14.957031 4.75 14.96875 4.746094 14.992188 4.75 C 15.015625 4.757812 15.035156 4.765625 15.035156 4.765625 Z M 16.066406 4.617188 C 16.066406 4.617188 16.09375 4.554688 16.136719 4.542969 C 16.171875 4.535156 16.222656 4.570312 16.222656 4.570312 C 16.222656 4.570312 16.15625 4.5625 16.136719 4.570312 C 16.117188 4.582031 16.113281 4.609375 16.113281 4.609375 C 16.113281 4.609375 16.125 4.585938 16.175781 4.59375 C 16.222656 4.597656 16.230469 4.597656 16.230469 4.597656 C 16.230469 4.597656 16.148438 4.597656 16.125 4.621094 C 16.105469 4.644531 16.203125 4.660156 16.203125 4.660156 C 16.203125 4.660156 16.054688 4.652344 16.035156 4.644531 C 16.015625 4.632812 16.003906 4.601562 15.96875 4.609375 C 15.9375 4.617188 15.902344 4.644531 15.902344 4.644531 C 15.902344 4.644531 15.941406 4.582031 15.964844 4.582031 C 15.992188 4.585938 16.003906 4.585938 16.027344 4.59375 C 16.046875 4.605469 16.066406 4.617188 16.066406 4.617188 Z M 16.539062 4.671875 C 16.539062 4.671875 16.574219 4.609375 16.617188 4.605469 C 16.652344 4.601562 16.699219 4.640625 16.699219 4.640625 C 16.699219 4.640625 16.636719 4.625 16.613281 4.632812 C 16.59375 4.640625 16.582031 4.667969 16.582031 4.667969 C 16.582031 4.667969 16.601562 4.648438 16.648438 4.660156 C 16.699219 4.667969 16.703125 4.671875 16.703125 4.671875 C 16.703125 4.671875 16.621094 4.660156 16.597656 4.683594 C 16.574219 4.703125 16.667969 4.730469 16.667969 4.730469 C 16.667969 4.730469 16.519531 4.703125 16.503906 4.691406 C 16.484375 4.679688 16.476562 4.648438 16.445312 4.652344 C 16.410156 4.65625 16.371094 4.679688 16.371094 4.679688 C 16.371094 4.679688 16.417969 4.621094 16.441406 4.625 C 16.464844 4.628906 16.480469 4.632812 16.5 4.644531 C 16.519531 4.65625 16.539062 4.671875 16.539062 4.671875 Z M 17.003906 4.753906 C 17.003906 4.753906 17.039062 4.707031 17.074219 4.707031 C 17.101562 4.707031 17.136719 4.742188 17.136719 4.742188 C 17.136719 4.742188 17.089844 4.726562 17.070312 4.730469 C 17.054688 4.734375 17.042969 4.757812 17.042969 4.757812 C 17.042969 4.757812 17.058594 4.742188 17.097656 4.753906 C 17.132812 4.765625 17.136719 4.765625 17.136719 4.765625 C 17.136719 4.765625 17.074219 4.753906 17.050781 4.769531 C 17.03125 4.78125 17.105469 4.8125 17.105469 4.8125 C 17.105469 4.8125 16.988281 4.78125 16.976562 4.769531 C 16.964844 4.757812 16.960938 4.730469 16.933594 4.730469 C 16.902344 4.734375 16.871094 4.75 16.871094 4.75 C 16.871094 4.75 16.914062 4.707031 16.933594 4.710938 C 16.953125 4.714844 16.960938 4.71875 16.976562 4.730469 C 16.992188 4.742188 17.003906 4.753906 17.003906 4.753906 Z M 17.003906 4.753906 "/>
  <path style="fill-rule:nonzero;fill:rgb(5.882353%,39.607843%,27.058824%);fill-opacity:1;stroke-width:0.435346;stroke-linecap:butt;stroke-linejoin:round;stroke:rgb(0%,0%,0%);stroke-opacity:1;stroke-miterlimit:4;" d="M 290.625 81.079102 C 290.844727 82.104492 289.599609 83.276367 287.915039 83.569336 C 286.157227 83.935547 284.619141 83.349609 284.399414 82.324219 C 284.179688 81.298828 285.424805 80.126953 287.109375 79.833984 C 288.867188 79.467773 290.405273 80.053711 290.625 81.079102 Z M 290.625 81.079102 " transform="matrix(0.0533333,0,0,0.0533333,0,0)"/>
  <path style=" stroke:none;fill-rule:nonzero;fill:rgb(80.784314%,81.176471%,75.686275%);fill-opacity:1;" d="M 15.292969 4.316406 C 15.292969 4.328125 15.28125 4.34375 15.261719 4.347656 C 15.238281 4.351562 15.222656 4.34375 15.21875 4.328125 C 15.214844 4.316406 15.230469 4.300781 15.25 4.296875 C 15.269531 4.292969 15.289062 4.300781 15.292969 4.316406 Z M 15.292969 4.316406 "/>
  <path style="fill-rule:nonzero;fill:rgb(5.882353%,39.607843%,27.058824%);fill-opacity:1;stroke-width:0.435346;stroke-linecap:butt;stroke-linejoin:round;stroke:rgb(0%,0%,0%);stroke-opacity:1;stroke-miterlimit:4;" d="M 315.087891 82.324219 C 314.794922 83.349609 313.110352 83.789062 311.425781 83.203125 C 309.814453 82.69043 308.642578 81.445312 309.008789 80.419922 C 309.301758 79.394531 310.913086 79.02832 312.597656 79.541016 C 314.282227 80.053711 315.380859 81.298828 315.087891 82.324219 Z M 315.087891 82.324219 " transform="matrix(0.0533333,0,0,0.0533333,0,0)"/>
  <path style=" stroke:none;fill-rule:nonzero;fill:rgb(80.784314%,81.176471%,75.686275%);fill-opacity:1;" d="M 16.625 4.28125 C 16.621094 4.296875 16.601562 4.300781 16.582031 4.296875 C 16.5625 4.289062 16.550781 4.273438 16.554688 4.261719 C 16.558594 4.246094 16.578125 4.242188 16.597656 4.246094 C 16.617188 4.253906 16.628906 4.269531 16.625 4.28125 Z M 16.625 4.28125 "/>
  <path style="fill-rule:nonzero;fill:rgb(12.156863%,17.647059%,52.54902%);fill-opacity:1;stroke-width:0.619346;stroke-linecap:butt;stroke-linejoin:round;stroke:rgb(0%,0%,0%);stroke-opacity:1;stroke-miterlimit:4;" d="M 296.630859 78.735352 L 302.929688 78.735352 L 302.929688 81.884766 L 296.630859 81.884766 Z M 296.630859 78.735352 " transform="matrix(0.0533333,0,0,0.0533333,0,0)"/>
  <path style=" stroke:none;fill-rule:nonzero;fill:rgb(43.921569%,48.627451%,54.509804%);fill-opacity:1;" d="M 15.960938 4.234375 C 15.960938 4.242188 15.949219 4.25 15.929688 4.25 C 15.914062 4.25 15.898438 4.242188 15.898438 4.234375 C 15.898438 4.226562 15.914062 4.21875 15.929688 4.21875 C 15.949219 4.21875 15.960938 4.226562 15.960938 4.234375 Z M 15.960938 4.234375 "/>
  <path style="fill-rule:evenodd;fill:rgb(62.352941%,7.058824%,3.529412%);fill-opacity:1;stroke-width:0.325972;stroke-linecap:butt;stroke-linejoin:miter;stroke:rgb(0%,0%,0%);stroke-opacity:1;stroke-miterlimit:4;" d="M 278.686523 81.884766 L 279.785156 85.03418 L 277.807617 86.05957 C 277.807617 86.05957 276.928711 86.645508 276.049805 86.206055 C 275.170898 85.766602 274.658203 84.301758 275.097656 83.71582 C 276.049805 82.617188 278.686523 81.884766 278.686523 81.884766 Z M 278.686523 81.884766 " transform="matrix(0.0533333,0,0,0.0533333,0,0)"/>
  <path style=" stroke:none;fill-rule:nonzero;fill:rgb(56.078431%,19.607843%,18.431373%);fill-opacity:1;" d="M 14.777344 4.484375 C 14.777344 4.511719 14.757812 4.535156 14.730469 4.535156 C 14.703125 4.535156 14.683594 4.511719 14.683594 4.484375 C 14.683594 4.457031 14.703125 4.433594 14.730469 4.433594 C 14.757812 4.433594 14.777344 4.457031 14.777344 4.484375 Z M 14.777344 4.484375 "/>
  <path style=" stroke:none;fill-rule:nonzero;fill:rgb(88.627451%,64.313725%,58.039216%);fill-opacity:1;" d="M 14.734375 4.464844 C 14.734375 4.472656 14.734375 4.484375 14.726562 4.488281 C 14.722656 4.496094 14.714844 4.496094 14.710938 4.492188 C 14.703125 4.488281 14.699219 4.480469 14.699219 4.472656 C 14.695312 4.464844 14.699219 4.457031 14.703125 4.449219 C 14.707031 4.445312 14.714844 4.441406 14.722656 4.445312 C 14.726562 4.449219 14.730469 4.457031 14.734375 4.464844 Z M 14.734375 4.464844 "/>
  <path style="fill-rule:evenodd;fill:rgb(62.352941%,7.058824%,3.529412%);fill-opacity:1;stroke-width:0.325972;stroke-linecap:butt;stroke-linejoin:miter;stroke:rgb(0%,0%,0%);stroke-opacity:1;stroke-miterlimit:4;" d="M 321.166992 82.324219 L 320.141602 85.03418 L 322.631836 86.352539 C 322.631836 86.352539 323.657227 86.865234 324.389648 86.206055 C 324.975586 85.693359 325.12207 84.521484 324.609375 83.935547 C 324.169922 83.349609 321.166992 82.324219 321.166992 82.324219 Z M 321.166992 82.324219 " transform="matrix(0.0533333,0,0,0.0533333,0,0)"/>
  <path style=" stroke:none;fill-rule:nonzero;fill:rgb(66.666667%,40.392157%,36.470588%);fill-opacity:1;" d="M 17.285156 4.507812 C 17.285156 4.527344 17.269531 4.539062 17.246094 4.539062 C 17.222656 4.539062 17.203125 4.527344 17.203125 4.507812 C 17.203125 4.488281 17.222656 4.476562 17.246094 4.476562 C 17.269531 4.476562 17.285156 4.488281 17.285156 4.507812 Z M 17.285156 4.507812 "/>
  <path style=" stroke:none;fill-rule:nonzero;fill:rgb(88.627451%,64.313725%,58.039216%);fill-opacity:1;" d="M 17.246094 4.503906 C 17.246094 4.511719 17.242188 4.519531 17.238281 4.523438 C 17.230469 4.527344 17.222656 4.527344 17.21875 4.523438 C 17.210938 4.519531 17.207031 4.511719 17.207031 4.503906 C 17.207031 4.496094 17.210938 4.488281 17.21875 4.480469 C 17.222656 4.476562 17.230469 4.476562 17.238281 4.480469 C 17.242188 4.488281 17.246094 4.496094 17.246094 4.503906 Z M 17.246094 4.503906 "/>
  <path style=" stroke:none;fill-rule:nonzero;fill:rgb(96.078431%,84.705882%,73.72549%);fill-opacity:1;" d="M 16.285156 4.210938 C 16.285156 4.226562 16.273438 4.234375 16.261719 4.234375 C 16.25 4.234375 16.238281 4.226562 16.238281 4.210938 C 16.238281 4.199219 16.25 4.191406 16.261719 4.191406 C 16.273438 4.191406 16.285156 4.199219 16.285156 4.210938 Z M 16.285156 4.210938 "/>
  <path style=" stroke:none;fill-rule:nonzero;fill:rgb(96.078431%,84.705882%,73.72549%);fill-opacity:1;" d="M 16.429688 4.222656 C 16.429688 4.234375 16.417969 4.242188 16.40625 4.242188 C 16.390625 4.242188 16.382812 4.234375 16.382812 4.222656 C 16.382812 4.207031 16.390625 4.199219 16.40625 4.199219 C 16.417969 4.199219 16.429688 4.207031 16.429688 4.222656 Z M 16.429688 4.222656 "/>
  <path style=" stroke:none;fill-rule:nonzero;fill:rgb(96.078431%,84.705882%,73.72549%);fill-opacity:1;" d="M 16.355469 4.277344 C 16.355469 4.292969 16.34375 4.304688 16.324219 4.304688 C 16.308594 4.304688 16.296875 4.292969 16.296875 4.277344 C 16.296875 4.261719 16.308594 4.25 16.324219 4.25 C 16.34375 4.25 16.355469 4.261719 16.355469 4.277344 Z M 16.355469 4.277344 "/>
  <path style=" stroke:none;fill-rule:nonzero;fill:rgb(96.078431%,84.705882%,73.72549%);fill-opacity:1;" d="M 16.425781 4.371094 C 16.425781 4.382812 16.414062 4.394531 16.402344 4.394531 C 16.386719 4.394531 16.378906 4.382812 16.378906 4.371094 C 16.378906 4.359375 16.386719 4.347656 16.402344 4.347656 C 16.414062 4.347656 16.425781 4.359375 16.425781 4.371094 Z M 16.425781 4.371094 "/>
  <path style=" stroke:none;fill-rule:nonzero;fill:rgb(96.078431%,84.705882%,73.72549%);fill-opacity:1;" d="M 16.285156 4.351562 C 16.285156 4.367188 16.277344 4.375 16.261719 4.375 C 16.25 4.375 16.238281 4.367188 16.238281 4.351562 C 16.238281 4.339844 16.25 4.332031 16.261719 4.332031 C 16.277344 4.332031 16.285156 4.339844 16.285156 4.351562 Z M 16.285156 4.351562 "/>
  <path style=" stroke:none;fill-rule:nonzero;fill:rgb(96.078431%,84.705882%,73.72549%);fill-opacity:1;" d="M 15.589844 4.238281 C 15.59375 4.25 15.585938 4.261719 15.570312 4.265625 C 15.558594 4.269531 15.546875 4.261719 15.542969 4.246094 C 15.542969 4.234375 15.550781 4.222656 15.5625 4.21875 C 15.574219 4.21875 15.585938 4.226562 15.589844 4.238281 Z M 15.589844 4.238281 "/>
  <path style=" stroke:none;fill-rule:nonzero;fill:rgb(96.078431%,84.705882%,73.72549%);fill-opacity:1;" d="M 15.730469 4.210938 C 15.734375 4.226562 15.726562 4.238281 15.714844 4.242188 C 15.703125 4.242188 15.6875 4.234375 15.6875 4.222656 C 15.683594 4.210938 15.691406 4.199219 15.703125 4.195312 C 15.714844 4.191406 15.730469 4.199219 15.730469 4.210938 Z M 15.730469 4.210938 "/>
  <path style=" stroke:none;fill-rule:nonzero;fill:rgb(96.078431%,84.705882%,73.72549%);fill-opacity:1;" d="M 15.675781 4.285156 C 15.679688 4.300781 15.667969 4.316406 15.652344 4.316406 C 15.636719 4.320312 15.621094 4.3125 15.617188 4.296875 C 15.613281 4.28125 15.621094 4.265625 15.640625 4.261719 C 15.65625 4.257812 15.671875 4.269531 15.675781 4.285156 Z M 15.675781 4.285156 "/>
  <path style=" stroke:none;fill-rule:nonzero;fill:rgb(96.078431%,84.705882%,73.72549%);fill-opacity:1;" d="M 15.761719 4.359375 C 15.765625 4.371094 15.757812 4.382812 15.746094 4.386719 C 15.730469 4.390625 15.71875 4.382812 15.714844 4.371094 C 15.714844 4.359375 15.722656 4.34375 15.734375 4.34375 C 15.746094 4.339844 15.757812 4.347656 15.761719 4.359375 Z M 15.761719 4.359375 "/>
  <path style=" stroke:none;fill-rule:nonzero;fill:rgb(96.078431%,84.705882%,73.72549%);fill-opacity:1;" d="M 15.625 4.375 C 15.625 4.386719 15.617188 4.398438 15.605469 4.402344 C 15.59375 4.402344 15.578125 4.394531 15.578125 4.382812 C 15.574219 4.371094 15.582031 4.359375 15.59375 4.355469 C 15.609375 4.355469 15.621094 4.359375 15.625 4.375 Z M 15.625 4.375 "/>
  <path style=" stroke:none;fill-rule:nonzero;fill:rgb(96.078431%,84.705882%,73.72549%);fill-opacity:1;" d="M 14.984375 4.367188 C 14.988281 4.378906 14.984375 4.394531 14.96875 4.398438 C 14.957031 4.402344 14.945312 4.398438 14.941406 4.386719 C 14.933594 4.375 14.941406 4.359375 14.953125 4.355469 C 14.964844 4.351562 14.980469 4.355469 14.984375 4.367188 Z M 14.984375 4.367188 "/>
  <path style=" stroke:none;fill-rule:nonzero;fill:rgb(96.078431%,84.705882%,73.72549%);fill-opacity:1;" d="M 15.121094 4.324219 C 15.125 4.335938 15.121094 4.347656 15.109375 4.355469 C 15.09375 4.359375 15.082031 4.351562 15.078125 4.339844 C 15.074219 4.328125 15.078125 4.316406 15.089844 4.3125 C 15.101562 4.304688 15.117188 4.3125 15.121094 4.324219 Z M 15.121094 4.324219 "/>
  <path style=" stroke:none;fill-rule:nonzero;fill:rgb(96.078431%,84.705882%,73.72549%);fill-opacity:1;" d="M 15.074219 4.402344 C 15.078125 4.417969 15.070312 4.433594 15.058594 4.4375 C 15.042969 4.445312 15.023438 4.4375 15.019531 4.421875 C 15.011719 4.410156 15.019531 4.390625 15.035156 4.386719 C 15.050781 4.378906 15.070312 4.386719 15.074219 4.402344 Z M 15.074219 4.402344 "/>
  <path style=" stroke:none;fill-rule:nonzero;fill:rgb(96.078431%,84.705882%,73.72549%);fill-opacity:1;" d="M 15.171875 4.464844 C 15.175781 4.476562 15.171875 4.488281 15.160156 4.496094 C 15.144531 4.5 15.132812 4.492188 15.128906 4.480469 C 15.125 4.46875 15.128906 4.457031 15.140625 4.453125 C 15.152344 4.445312 15.167969 4.453125 15.171875 4.464844 Z M 15.171875 4.464844 "/>
  <path style=" stroke:none;fill-rule:nonzero;fill:rgb(96.078431%,84.705882%,73.72549%);fill-opacity:1;" d="M 15.035156 4.5 C 15.042969 4.511719 15.035156 4.523438 15.023438 4.527344 C 15.011719 4.53125 14.996094 4.527344 14.992188 4.515625 C 14.988281 4.503906 14.992188 4.492188 15.007812 4.484375 C 15.019531 4.480469 15.03125 4.488281 15.035156 4.5 Z M 15.035156 4.5 "/>
  <path style=" stroke:none;fill-rule:nonzero;fill:rgb(96.078431%,84.705882%,73.72549%);fill-opacity:1;" d="M 16.910156 4.300781 C 16.90625 4.316406 16.890625 4.324219 16.878906 4.320312 C 16.863281 4.316406 16.855469 4.304688 16.859375 4.289062 C 16.863281 4.277344 16.875 4.269531 16.890625 4.273438 C 16.902344 4.277344 16.914062 4.289062 16.910156 4.300781 Z M 16.910156 4.300781 "/>
  <path style=" stroke:none;fill-rule:nonzero;fill:rgb(96.078431%,84.705882%,73.72549%);fill-opacity:1;" d="M 17.058594 4.347656 C 17.054688 4.359375 17.039062 4.367188 17.027344 4.367188 C 17.011719 4.363281 17.003906 4.347656 17.007812 4.335938 C 17.011719 4.324219 17.023438 4.3125 17.039062 4.316406 C 17.050781 4.320312 17.0625 4.335938 17.058594 4.347656 Z M 17.058594 4.347656 "/>
  <path style=" stroke:none;fill-rule:nonzero;fill:rgb(96.078431%,84.705882%,73.72549%);fill-opacity:1;" d="M 16.96875 4.386719 C 16.964844 4.402344 16.945312 4.414062 16.929688 4.410156 C 16.910156 4.40625 16.902344 4.386719 16.90625 4.371094 C 16.910156 4.355469 16.925781 4.34375 16.941406 4.351562 C 16.960938 4.355469 16.972656 4.371094 16.96875 4.386719 Z M 16.96875 4.386719 "/>
  <path style=" stroke:none;fill-rule:nonzero;fill:rgb(96.078431%,84.705882%,73.72549%);fill-opacity:1;" d="M 17.015625 4.503906 C 17.011719 4.515625 17 4.523438 16.984375 4.519531 C 16.972656 4.519531 16.960938 4.503906 16.964844 4.492188 C 16.96875 4.476562 16.984375 4.46875 16.996094 4.472656 C 17.011719 4.476562 17.019531 4.492188 17.015625 4.503906 Z M 17.015625 4.503906 "/>
  <path style=" stroke:none;fill-rule:nonzero;fill:rgb(96.078431%,84.705882%,73.72549%);fill-opacity:1;" d="M 16.875 4.449219 C 16.871094 4.460938 16.859375 4.46875 16.84375 4.464844 C 16.832031 4.464844 16.820312 4.449219 16.824219 4.4375 C 16.828125 4.421875 16.84375 4.414062 16.855469 4.417969 C 16.871094 4.421875 16.878906 4.4375 16.875 4.449219 Z M 16.875 4.449219 "/>
  <path style="fill:none;stroke-width:0.749735;stroke-linecap:butt;stroke-linejoin:miter;stroke:rgb(0%,0%,0%);stroke-opacity:1;stroke-miterlimit:4;" d="M 322.485352 55.59082 C 322.485352 55.59082 321.166992 56.762695 319.702148 56.762695 C 318.164062 56.762695 317.285156 56.176758 316.772461 55.810547 C 316.333008 55.517578 316.918945 54.56543 316.918945 54.56543 " transform="matrix(0.0533333,0,0,0.0533333,0,0)"/>
  <path style="fill:none;stroke-width:0.68454;stroke-linecap:butt;stroke-linejoin:miter;stroke:rgb(0%,0%,0%);stroke-opacity:1;stroke-miterlimit:4;" d="M 295.532227 58.007812 C 295.532227 58.007812 293.261719 57.568359 292.30957 57.275391 C 291.28418 56.90918 291.577148 56.323242 290.405273 56.396484 C 289.306641 56.469727 288.208008 57.275391 288.427734 58.374023 C 288.647461 59.472656 289.453125 59.692383 290.258789 59.399414 C 291.064453 59.179688 290.844727 57.861328 289.819336 57.93457 C 288.720703 58.007812 289.599609 58.886719 289.599609 58.886719 " transform="matrix(0.0533333,0,0,0.0533333,0,0)"/>
  <path style="fill:none;stroke-width:0.651943;stroke-linecap:butt;stroke-linejoin:miter;stroke:rgb(0%,0%,0%);stroke-opacity:1;stroke-miterlimit:4;" d="M 279.56543 56.25 C 279.56543 56.25 280.151367 57.202148 281.835938 57.055664 C 283.520508 56.835938 284.179688 55.957031 284.25293 55.59082 C 284.326172 55.151367 284.25293 54.492188 283.959961 54.125977 C 283.59375 53.833008 282.495117 53.686523 282.495117 53.686523 " transform="matrix(0.0533333,0,0,0.0533333,0,0)"/>
  </g>
  </svg>