<svg width="23" height="23" viewBox="0 0 23 23" fill="none" xmlns="http://www.w3.org/2000/svg">
<g clip-path="url(#clip0_1804_2602)">
<path d="M9.3437 0.682827C6.52988 0.680132 3.89017 2.04576 2.26499 4.34305C0.640618 6.64036 0.232736 9.58452 1.17249 12.2366C2.11315 14.8888 4.28278 16.9192 6.99172 17.6812C9.70043 18.4431 12.6106 17.8411 14.7956 16.0676L20.7828 22.0548L22.0549 20.7826L16.0678 14.7954C17.4514 13.0938 18.1369 10.9294 17.986 8.74092C17.835 6.55247 16.8593 4.50294 15.2547 3.00702C13.6501 1.51113 11.5379 0.680113 9.34393 0.682873L9.3437 0.682827ZM9.3437 16.2078C7.52346 16.2078 5.77686 15.4846 4.49024 14.1971C3.20277 12.9105 2.47954 11.1639 2.47954 9.34366C2.47954 7.52344 3.20277 5.77682 4.49024 4.4902C5.77682 3.20273 7.52348 2.4795 9.3437 2.4795C11.1639 2.4795 12.9105 3.20273 14.1972 4.4902C15.4846 5.77678 16.2079 7.52344 16.2079 9.34366C16.2061 11.1639 15.4819 12.9087 14.1954 14.1953C12.9088 15.4819 11.1639 16.206 9.3437 16.2078Z" fill="#100C08"/>
<path d="M10.2422 5.89382L10.2422 12.7938L8.44531 12.7938L8.44531 5.89382L10.2422 5.89382Z" fill="#100C08"/>
<path d="M5.89368 8.44537H12.7937V10.2422H5.89368V8.44537Z" fill="#100C08"/>
</g>
<defs>
<clipPath id="clip0_1804_2602">
<rect width="23" height="23" fill="white"/>
</clipPath>
</defs>
</svg>

